<?xml version="1.0" standalone="no"?>
<!DOCTYPE svg PUBLIC "-//W3C//DTD SVG 20010904//EN"
 "http://www.w3.org/TR/2001/REC-SVG-20010904/DTD/svg10.dtd">
<svg version="1.0" xmlns="http://www.w3.org/2000/svg"
 width="512.000000pt" height="512.000000pt" viewBox="0 0 512.000000 512.000000"
 preserveAspectRatio="xMidYMid meet">
<metadata>
Created by potrace 1.14, written by Peter Selinger 2001-2017
</metadata>
<g transform="translate(0.000000,512.000000) scale(0.100000,-0.100000)"
fill="#000000" stroke="none">
<path d="M2386 5109 c-1167 -75 -2152 -965 -2345 -2121 -169 -1010 273 -2015
1135 -2575 1003 -652 2339 -509 3190 341 998 999 998 2613 0 3612 -376 375
-862 627 -1378 713 -105 18 -410 44 -458 40 -8 -1 -73 -6 -144 -10z m1930
-1810 c12 -4 38 -22 57 -39 103 -90 81 -266 -40 -320 -56 -26 -147 -29 -190
-6 -32 17 -75 60 -93 95 -19 37 -18 121 3 166 43 93 164 140 263 104z m-1381
-530 c78 -14 140 -47 191 -101 186 -194 95 -508 -165 -574 -250 -63 -480 167
-417 417 35 139 153 245 291 262 17 2 33 5 36 6 3 0 32 -4 64 -10z m-1707
-579 c231 -38 435 -213 513 -440 30 -90 38 -269 15 -360 -30 -120 -76 -199
-171 -299 -73 -76 -102 -98 -169 -131 -108 -53 -181 -70 -296 -70 -192 0 -325
55 -461 190 -142 142 -194 265 -193 465 0 103 4 132 27 201 42 126 127 246
226 318 59 43 200 107 271 122 69 15 157 17 238 4z"/>
<path d="M2805 2596 c-66 -29 -105 -94 -105 -172 0 -51 11 -76 49 -117 37 -41
73 -57 126 -57 60 0 103 19 142 63 76 86 48 222 -57 278 -40 22 -112 24 -155
5z"/>
<path d="M1045 2030 c-324 -50 -511 -400 -371 -695 146 -310 549 -380 790
-139 238 239 174 637 -128 784 -48 23 -108 44 -146 50 -71 11 -73 11 -145 0z"/>
</g>
</svg>
