<svg width="445" height="290" viewBox="0 0 445 290" fill="none" xmlns="http://www.w3.org/2000/svg">
<path fill-rule="evenodd" clip-rule="evenodd" d="M144.581 124.834C144.581 123.766 145.005 122.743 145.758 121.989C146.511 121.234 147.533 120.81 148.598 120.81C149.663 120.81 150.685 121.234 151.438 121.989C152.191 122.743 152.614 123.766 152.614 124.834V165.068C152.614 166.135 152.191 167.159 151.438 167.913C150.685 168.668 149.663 169.092 148.598 169.092C147.533 169.092 146.511 168.668 145.758 167.913C145.005 167.159 144.581 166.135 144.581 165.068V124.834ZM319.437 198.346C319.894 197.407 320.698 196.683 321.678 196.328C322.659 195.972 323.739 196.013 324.69 196.442C325.641 196.871 326.388 197.654 326.773 198.625C327.157 199.596 327.149 200.679 326.75 201.644C318.352 220.339 305.9 236.925 290.3 250.195C274.7 263.465 256.345 273.086 236.568 278.359C216.79 283.631 196.089 284.423 175.968 280.676C155.847 276.929 136.813 268.738 120.249 256.697C119.81 256.392 119.437 256.003 119.151 255.552C118.865 255.1 118.671 254.596 118.582 254.069C118.492 253.542 118.509 253.003 118.63 252.482C118.752 251.961 118.976 251.47 119.289 251.037C119.602 250.605 119.999 250.239 120.455 249.961C120.911 249.684 121.418 249.5 121.946 249.421C122.474 249.343 123.012 249.37 123.529 249.502C124.046 249.635 124.532 249.869 124.958 250.191C140.561 261.519 158.487 269.224 177.434 272.747C196.38 276.27 215.872 275.522 234.495 270.557C253.117 265.593 270.402 256.537 285.094 244.046C299.787 231.556 311.518 215.945 319.437 198.346ZM76.5572 181.585C74.8319 175.653 73.5317 169.605 72.6666 163.487C71.7953 157.347 71.3594 151.153 71.3622 144.951C71.3657 114.92 81.7487 85.8175 100.747 62.5874C119.745 39.3573 146.187 23.433 175.579 17.5205C204.971 11.6079 235.499 16.0719 261.978 30.1539C288.456 44.2359 309.25 67.0671 320.827 94.768C321.253 95.7247 322.035 96.4768 323.007 96.864C323.979 97.2513 325.063 97.2432 326.029 96.8414C326.995 96.4396 327.766 95.6758 328.178 94.7129C328.59 93.75 328.61 92.664 328.235 91.6863C314.625 59.1565 289.102 33.079 256.903 18.8065C224.705 4.53411 188.274 3.14949 155.088 14.9369C121.903 26.7243 94.48 50.7895 78.4493 82.1928C62.4187 113.596 58.996 149.955 68.884 183.807C69.1822 184.828 69.8734 185.69 70.8054 186.201C71.7375 186.712 72.8341 186.831 73.854 186.533C74.8739 186.234 75.7336 185.541 76.2439 184.608C76.7542 183.674 76.8734 182.576 76.5752 181.554L76.5572 181.585ZM273.533 126.618C273.055 125.667 272.975 124.566 273.308 123.556C273.642 122.545 274.363 121.709 275.311 121.231C276.26 120.753 277.36 120.673 278.368 121.007C279.377 121.341 280.211 122.063 280.689 123.013L297.195 156.084L313.702 123.013C313.938 122.543 314.265 122.124 314.663 121.78C315.061 121.436 315.523 121.174 316.022 121.008C316.521 120.843 317.047 120.778 317.572 120.817C318.096 120.855 318.607 120.997 319.077 121.234C319.547 121.47 319.965 121.797 320.308 122.196C320.652 122.595 320.914 123.057 321.079 123.557C321.243 124.057 321.309 124.585 321.27 125.11C321.231 125.635 321.09 126.147 320.854 126.618L300.794 166.852C300.463 167.52 299.953 168.082 299.321 168.474C298.689 168.867 297.96 169.075 297.216 169.075C296.472 169.075 295.743 168.867 295.11 168.474C294.478 168.082 293.968 167.52 293.638 166.852L273.551 126.618H273.533ZM329.377 125.424C329.219 124.369 329.486 123.295 330.118 122.437C330.751 121.58 331.698 121.009 332.75 120.851C333.803 120.692 334.875 120.959 335.732 121.593C336.588 122.227 337.157 123.175 337.316 124.23C337.822 127.606 338.208 131.042 338.471 134.539C338.728 138.017 338.863 141.491 338.863 144.942C338.863 148.393 338.728 151.867 338.471 155.35C338.215 158.832 337.824 162.279 337.316 165.658C337.237 166.18 337.057 166.682 336.785 167.135C336.514 167.587 336.155 167.981 335.732 168.295C335.308 168.609 334.826 168.836 334.315 168.963C333.803 169.091 333.272 169.116 332.75 169.038C332.229 168.959 331.728 168.779 331.277 168.506C330.825 168.234 330.431 167.875 330.118 167.451C329.805 167.026 329.578 166.544 329.451 166.031C329.324 165.519 329.299 164.987 329.377 164.464C329.86 161.241 330.224 158.003 330.47 154.75C330.704 151.554 330.822 148.285 330.825 144.942C330.828 141.599 330.71 138.329 330.47 135.133C330.227 131.88 329.863 128.644 329.377 125.424ZM349.41 169.083C348.345 169.083 347.323 168.659 346.57 167.904C345.817 167.15 345.394 166.126 345.394 165.059C345.394 163.992 345.817 162.969 346.57 162.214C347.323 161.46 348.345 161.036 349.41 161.036H379.545C380.337 161.036 381.121 160.881 381.852 160.577C382.584 160.274 383.249 159.83 383.809 159.269L383.971 159.116C384.767 158.253 385.295 157.177 385.491 156.018C385.686 154.859 385.54 153.669 385.07 152.592C384.601 151.515 383.828 150.598 382.847 149.954C381.866 149.31 380.718 148.967 379.545 148.965H363.488C361.644 148.966 359.818 148.603 358.115 147.895C356.411 147.188 354.864 146.15 353.561 144.843C352.255 143.537 351.219 141.987 350.512 140.28C349.805 138.573 349.441 136.743 349.441 134.894C349.441 133.046 349.805 131.216 350.512 129.509C351.219 127.802 352.255 126.252 353.561 124.946C353.643 124.862 353.728 124.782 353.818 124.707C356.425 122.21 359.894 120.818 363.502 120.819H369.52C370.585 120.819 371.606 121.243 372.36 121.998C373.113 122.752 373.536 123.775 373.536 124.843C373.536 125.91 373.113 126.933 372.36 127.688C371.606 128.442 370.585 128.866 369.52 128.866H363.488C361.966 128.862 360.499 129.435 359.382 130.47L359.229 130.632C358.382 131.475 357.805 132.551 357.57 133.723C357.336 134.895 357.454 136.11 357.911 137.214C358.367 138.319 359.141 139.262 360.134 139.925C361.127 140.588 362.295 140.94 363.488 140.936H379.554C382.305 140.934 384.996 141.741 387.294 143.257C389.591 144.774 391.394 146.932 392.477 149.465C393.561 151.999 393.878 154.795 393.389 157.507C392.9 160.219 391.627 162.727 389.728 164.721C389.656 164.807 389.58 164.892 389.494 164.978C388.19 166.287 386.64 167.325 384.935 168.032C383.229 168.74 381.4 169.103 379.554 169.101L349.41 169.083ZM168.663 165.059C168.663 166.126 168.239 167.15 167.486 167.904C166.733 168.659 165.711 169.083 164.646 169.083C163.581 169.083 162.559 168.659 161.806 167.904C161.053 167.15 160.63 166.126 160.63 165.059V124.825C160.629 124.025 160.867 123.243 161.313 122.579C161.758 121.915 162.391 121.399 163.131 121.097C163.871 120.796 164.683 120.722 165.465 120.885C166.247 121.048 166.962 121.441 167.52 122.013L204.829 155.994V124.834C204.829 123.766 205.252 122.743 206.006 121.989C206.759 121.234 207.78 120.81 208.846 120.81C209.911 120.81 210.933 121.234 211.686 121.989C212.439 122.743 212.862 123.766 212.862 124.834V165.068C212.867 166.069 212.495 167.035 211.819 167.771C211.103 168.559 210.105 169.029 209.043 169.08C207.981 169.131 206.943 168.757 206.156 168.042L168.681 133.917L168.663 165.059Z" fill="white"/>
<path fill-rule="evenodd" clip-rule="evenodd" d="M144.581 174.493H147.019V187.65H144.581V174.493ZM91.7864 174.493C101.201 174.493 110.404 177.29 118.232 182.53C126.06 187.769 132.161 195.216 135.763 203.929C139.366 212.642 140.308 222.23 138.471 231.48C136.634 240.729 132.1 249.225 125.443 255.893C118.786 262.562 110.304 267.103 101.07 268.942C91.8362 270.781 82.2653 269.836 73.5676 266.227C64.87 262.617 57.4362 256.505 52.2064 248.663C46.9766 240.821 44.1856 231.602 44.1865 222.171C44.1865 215.91 45.4178 209.709 47.8099 203.925C50.2021 198.14 53.7084 192.884 58.1285 188.456C62.5486 184.029 67.796 180.517 73.5711 178.121C79.3461 175.726 85.5357 174.493 91.7864 174.493ZM119.763 194.147C113.289 187.658 104.769 183.62 95.6555 182.719C86.542 181.818 77.3987 184.11 69.7835 189.206C62.1684 194.301 56.5528 201.884 53.8935 210.663C51.2343 219.441 51.696 228.871 55.2001 237.347C58.7041 245.822 65.0336 252.818 73.11 257.143C81.1863 261.467 90.5098 262.853 99.4915 261.063C108.473 259.273 116.557 254.418 122.366 247.326C128.176 240.235 131.35 231.345 131.349 222.171C131.356 216.965 130.336 211.81 128.348 207C126.359 202.191 123.442 197.823 119.763 194.147ZM244.999 120.81C250.575 120.81 255.979 122.747 260.29 126.291C264.6 129.835 267.551 134.767 268.638 140.246C269.726 145.725 268.883 151.412 266.254 156.339C263.625 161.265 259.372 165.126 254.219 167.263C249.067 169.4 243.334 169.682 237.998 168.06C232.662 166.437 228.052 163.012 224.954 158.367C221.857 153.721 220.463 148.144 221.01 142.585C221.558 137.025 224.013 131.828 227.956 127.879C230.192 125.634 232.849 123.854 235.773 122.641C238.698 121.428 241.833 120.805 244.999 120.81ZM256.355 133.569C253.727 130.939 250.269 129.302 246.571 128.939C242.873 128.575 239.164 129.507 236.075 131.576C232.986 133.645 230.709 136.723 229.632 140.285C228.554 143.847 228.743 147.673 230.166 151.112C231.588 154.55 234.157 157.388 237.434 159.142C240.712 160.896 244.495 161.458 248.139 160.731C251.783 160.004 255.063 158.034 257.42 155.157C259.777 152.28 261.065 148.673 261.065 144.95C261.067 142.836 260.652 140.742 259.844 138.789C259.036 136.836 257.85 135.062 256.355 133.569ZM328.18 91.5642C331.203 91.5674 334.101 92.7731 336.236 94.9164L336.263 94.9434C337.326 96.0023 338.17 97.2614 338.746 98.6482C339.322 100.035 339.618 101.522 339.618 103.024C339.618 104.526 339.322 106.013 338.746 107.4C338.17 108.787 337.326 110.046 336.263 111.105L336.236 111.132C335.179 112.197 333.922 113.042 332.537 113.619C331.153 114.196 329.668 114.493 328.169 114.493C326.67 114.493 325.185 114.196 323.801 113.619C322.416 113.042 321.159 112.197 320.102 111.132L320.075 111.105C319.012 110.046 318.168 108.787 317.592 107.4C317.017 106.013 316.72 104.526 316.72 103.024C316.72 101.522 317.017 100.035 317.592 98.6482C318.168 97.2614 319.012 96.0023 320.075 94.9434L320.102 94.9164C321.161 93.8515 322.421 93.007 323.807 92.4317C325.193 91.8564 326.68 91.5616 328.18 91.5642ZM328.18 98.8091C327.346 98.8091 326.53 99.0571 325.836 99.5217C325.142 99.9863 324.601 100.647 324.282 101.419C323.963 102.192 323.88 103.042 324.043 103.862C324.206 104.681 324.608 105.434 325.199 106.025C325.789 106.616 326.541 107.018 327.36 107.181C328.179 107.343 329.027 107.259 329.798 106.939C330.569 106.618 331.227 106.076 331.69 105.38C332.153 104.684 332.4 103.867 332.399 103.031C332.398 101.911 331.953 100.837 331.162 100.045C330.371 99.2538 329.298 98.8091 328.18 98.8091ZM156.028 177.499C156.582 177.472 157.136 177.557 157.657 177.747C158.178 177.937 158.657 178.23 159.064 178.607C159.829 179.346 160.211 180.445 160.211 181.896V187.65H157.863V182.198C157.918 181.482 157.697 180.773 157.247 180.215C157.017 179.985 156.74 179.806 156.435 179.691C156.13 179.576 155.804 179.528 155.479 179.549C155.104 179.529 154.728 179.588 154.376 179.722C154.024 179.856 153.705 180.063 153.437 180.328C153.17 180.635 152.966 180.993 152.838 181.379C152.709 181.766 152.657 182.174 152.686 182.581V187.654H150.338V177.62H152.587V178.918C152.98 178.451 153.482 178.088 154.049 177.863C154.685 177.619 155.361 177.498 156.042 177.508L156.028 177.499ZM166.292 187.78C165.487 187.783 164.685 187.675 163.908 187.46C163.248 187.299 162.62 187.026 162.051 186.654L162.95 184.852C163.451 185.174 163.999 185.417 164.574 185.572C165.18 185.753 165.808 185.845 166.44 185.847C167.841 185.847 168.541 185.478 168.541 184.739C168.547 184.574 168.497 184.412 168.4 184.279C168.303 184.146 168.164 184.049 168.006 184.005C167.449 183.817 166.875 183.684 166.292 183.608C165.608 183.509 164.933 183.359 164.273 183.157C163.755 182.996 163.29 182.701 162.923 182.301C162.519 181.831 162.314 181.222 162.352 180.603C162.342 180.153 162.445 179.707 162.653 179.308C162.86 178.909 163.165 178.568 163.539 178.319C164.497 177.702 165.623 177.402 166.76 177.462C167.455 177.462 168.147 177.541 168.824 177.697C169.416 177.819 169.985 178.031 170.511 178.328L169.611 180.13C168.74 179.625 167.748 179.367 166.742 179.382C166.201 179.349 165.661 179.455 165.172 179.688C165.016 179.762 164.884 179.878 164.79 180.023C164.696 180.167 164.645 180.336 164.641 180.508C164.637 180.685 164.691 180.859 164.794 181.003C164.897 181.147 165.044 181.253 165.213 181.306C165.787 181.515 166.38 181.666 166.985 181.756C167.651 181.858 168.31 182.009 168.955 182.207C169.455 182.364 169.907 182.646 170.268 183.027C170.662 183.484 170.861 184.078 170.821 184.68C170.827 185.129 170.718 185.571 170.505 185.966C170.291 186.36 169.981 186.693 169.602 186.933C168.607 187.545 167.449 187.839 166.283 187.776L166.292 187.78ZM178.414 177.499C179.327 177.482 180.228 177.703 181.031 178.138C181.787 178.56 182.41 179.184 182.83 179.941C183.264 180.775 183.49 181.703 183.49 182.644C183.49 183.585 183.264 184.512 182.83 185.347C182.412 186.106 181.789 186.731 181.031 187.149C180.228 187.585 179.327 187.805 178.414 187.789C177.812 187.818 177.211 187.711 176.655 187.477C176.1 187.243 175.603 186.888 175.202 186.438V191.304H172.859V177.62H175.108V178.936C175.491 178.464 175.986 178.095 176.547 177.863C177.146 177.622 177.786 177.501 178.432 177.508L178.414 177.499ZM178.148 185.771C178.544 185.784 178.938 185.713 179.306 185.564C179.673 185.415 180.005 185.191 180.28 184.906C180.82 184.271 181.116 183.464 181.116 182.63C181.116 181.797 180.82 180.99 180.28 180.355C180.005 180.07 179.673 179.845 179.306 179.696C178.938 179.547 178.544 179.477 178.148 179.49C177.618 179.483 177.095 179.616 176.632 179.877C176.178 180.134 175.807 180.516 175.562 180.977C175.302 181.489 175.166 182.056 175.166 182.63C175.166 183.205 175.302 183.772 175.562 184.284C175.807 184.745 176.178 185.127 176.632 185.383C177.095 185.644 177.618 185.778 178.148 185.771ZM185.731 177.62H188.075V187.659H185.731V177.62ZM186.914 175.967C186.518 175.978 186.133 175.832 185.844 175.561C185.707 175.432 185.599 175.276 185.525 175.103C185.45 174.931 185.412 174.744 185.412 174.556C185.412 174.368 185.45 174.182 185.525 174.009C185.599 173.837 185.707 173.681 185.844 173.552C186.133 173.28 186.518 173.135 186.914 173.146C187.307 173.135 187.69 173.274 187.985 173.534C188.127 173.651 188.241 173.799 188.319 173.967C188.397 174.135 188.436 174.317 188.435 174.502C188.438 174.695 188.402 174.887 188.329 175.066C188.257 175.245 188.149 175.407 188.012 175.543C187.87 175.684 187.701 175.794 187.516 175.867C187.33 175.939 187.132 175.974 186.932 175.967H186.914ZM193.387 179.084C194.061 178.035 195.253 177.508 196.953 177.508V179.76C196.774 179.723 196.592 179.703 196.409 179.702C196.016 179.679 195.623 179.738 195.254 179.876C194.885 180.014 194.55 180.228 194.268 180.504C193.995 180.817 193.786 181.181 193.654 181.576C193.522 181.97 193.47 182.387 193.499 182.802V187.672H191.156V177.62H193.405V179.084H193.387ZM208.27 182.689C208.27 182.851 208.27 183.081 208.229 183.383H200.367C200.485 184.087 200.872 184.717 201.447 185.14C202.079 185.588 202.841 185.816 203.615 185.789C204.119 185.805 204.621 185.717 205.089 185.529C205.557 185.341 205.982 185.059 206.336 184.698L207.595 186.145C207.136 186.689 206.548 187.11 205.886 187.37C205.144 187.654 204.355 187.793 203.561 187.78C202.551 187.803 201.552 187.577 200.65 187.122C199.841 186.71 199.166 186.074 198.707 185.289C198.245 184.48 198.009 183.562 198.024 182.63C198.01 181.707 198.239 180.796 198.689 179.99C199.124 179.219 199.764 178.584 200.538 178.156C201.354 177.711 202.271 177.484 203.201 177.499C204.115 177.483 205.017 177.707 205.818 178.147C206.579 178.572 207.203 179.205 207.618 179.972C208.06 180.803 208.283 181.734 208.265 182.675L208.27 182.689ZM203.201 179.377C202.506 179.359 201.828 179.598 201.298 180.049C200.772 180.501 200.433 181.134 200.349 181.824H206.034C205.963 181.143 205.642 180.512 205.135 180.053C204.603 179.596 203.919 179.355 203.219 179.377H203.201ZM213.618 187.78C212.812 187.783 212.01 187.675 211.234 187.46C210.574 187.298 209.946 187.026 209.376 186.654L210.276 184.852C210.777 185.173 211.325 185.416 211.899 185.572C212.505 185.752 213.134 185.845 213.766 185.847C215.169 185.847 215.866 185.478 215.866 184.739C215.872 184.575 215.823 184.414 215.727 184.281C215.631 184.148 215.493 184.05 215.336 184.005C214.777 183.818 214.202 183.685 213.618 183.608C212.934 183.509 212.259 183.359 211.598 183.157C211.081 182.996 210.615 182.701 210.249 182.301C209.845 181.831 209.64 181.222 209.678 180.603C209.667 180.152 209.771 179.706 209.979 179.307C210.188 178.907 210.494 178.567 210.869 178.319C211.825 177.701 212.95 177.401 214.085 177.462C214.78 177.462 215.473 177.541 216.15 177.697C216.742 177.819 217.313 178.032 217.841 178.328L216.941 180.13C216.07 179.625 215.078 179.367 214.072 179.382C213.533 179.348 212.993 179.453 212.507 179.688C212.35 179.761 212.216 179.876 212.122 180.021C212.027 180.166 211.975 180.335 211.971 180.508C211.967 180.685 212.021 180.859 212.124 181.003C212.227 181.147 212.374 181.253 212.543 181.306C213.117 181.515 213.71 181.666 214.315 181.756C214.981 181.858 215.64 182.009 216.285 182.207C216.789 182.365 217.244 182.651 217.607 183.036C218.002 183.492 218.203 184.086 218.165 184.689C218.17 185.138 218.06 185.581 217.846 185.975C217.632 186.369 217.32 186.702 216.941 186.942C215.946 187.554 214.788 187.848 213.622 187.785L213.618 187.78ZM225.591 174.493H231.33C232.622 174.468 233.903 174.747 235.067 175.309C236.116 175.819 236.995 176.622 237.6 177.62C238.189 178.674 238.499 179.861 238.499 181.069C238.499 182.277 238.189 183.465 237.6 184.518C236.997 185.519 236.117 186.324 235.067 186.834C233.903 187.395 232.622 187.675 231.33 187.65H225.591V174.493ZM231.217 185.581C232.098 185.6 232.97 185.411 233.763 185.027C234.47 184.682 235.057 184.133 235.45 183.45C235.84 182.718 236.043 181.901 236.043 181.071C236.043 180.242 235.84 179.425 235.45 178.692C235.058 178.009 234.471 177.46 233.763 177.116C232.971 176.73 232.098 176.54 231.217 176.561H228.028V185.572L231.217 185.581ZM244.711 177.499C246.186 177.499 247.315 177.853 248.097 178.562C248.88 179.271 249.271 180.339 249.271 181.765V187.65H247.058V186.429C246.758 186.88 246.328 187.23 245.826 187.433C245.216 187.679 244.563 187.797 243.906 187.78C243.229 187.796 242.557 187.665 241.936 187.397C241.409 187.169 240.957 186.798 240.631 186.325C240.327 185.866 240.17 185.325 240.181 184.775C240.168 184.359 240.252 183.946 240.427 183.569C240.602 183.192 240.863 182.861 241.189 182.603C241.855 182.058 242.912 181.783 244.337 181.783H246.924V181.635C246.943 181.336 246.897 181.036 246.789 180.757C246.681 180.478 246.514 180.225 246.298 180.017C245.765 179.606 245.099 179.405 244.427 179.454C243.864 179.456 243.304 179.544 242.768 179.715C242.266 179.869 241.799 180.119 241.391 180.45L240.469 178.738C241.04 178.321 241.684 178.015 242.367 177.836C243.13 177.62 243.918 177.513 244.711 177.517V177.499ZM244.391 186.059C244.94 186.07 245.482 185.929 245.957 185.654C246.406 185.395 246.748 184.984 246.924 184.496V183.333H244.481C243.132 183.333 242.457 183.784 242.457 184.685C242.451 184.882 242.494 185.078 242.582 185.255C242.67 185.432 242.8 185.584 242.961 185.699C243.377 185.973 243.871 186.106 244.369 186.077L244.391 186.059ZM258.298 187.091C258.001 187.328 257.658 187.502 257.291 187.6C256.885 187.714 256.466 187.77 256.045 187.767C255.114 187.827 254.197 187.516 253.495 186.902C253.179 186.567 252.936 186.171 252.781 185.737C252.626 185.303 252.563 184.842 252.595 184.383V179.567H250.945V177.688H252.577V174.493H254.925V177.688H257.624V179.567H254.925V184.342C254.897 184.747 255.024 185.147 255.28 185.46C255.416 185.593 255.579 185.696 255.757 185.762C255.935 185.828 256.125 185.856 256.315 185.843C256.787 185.86 257.25 185.715 257.628 185.433L258.285 187.104L258.298 187.091ZM264.06 177.485C265.535 177.485 266.664 177.839 267.447 178.548C268.23 179.257 268.619 180.325 268.616 181.752V187.636H266.385V186.415C266.085 186.864 265.657 187.214 265.158 187.42C264.546 187.665 263.891 187.783 263.232 187.767C262.556 187.782 261.884 187.652 261.262 187.384C260.736 187.156 260.284 186.784 259.958 186.311C259.654 185.853 259.497 185.312 259.508 184.761C259.494 184.346 259.577 183.933 259.751 183.556C259.925 183.178 260.186 182.848 260.511 182.59C261.183 182.046 262.232 181.773 263.66 181.77H266.251V181.621C266.269 181.322 266.222 181.022 266.114 180.743C266.005 180.463 265.837 180.211 265.621 180.004C265.089 179.592 264.424 179.391 263.754 179.44C263.191 179.442 262.631 179.53 262.095 179.702C261.592 179.857 261.124 180.106 260.714 180.436L259.814 178.724C260.384 178.308 261.026 178.003 261.708 177.823C262.472 177.607 263.262 177.499 264.056 177.503L264.06 177.485ZM263.741 186.046C264.29 186.055 264.831 185.915 265.306 185.64C265.754 185.38 266.096 184.97 266.273 184.482V183.32H263.822C262.472 183.32 261.793 183.77 261.793 184.671C261.788 184.869 261.832 185.065 261.921 185.242C262.009 185.419 262.14 185.571 262.301 185.685C262.718 185.96 263.211 186.093 263.709 186.064L263.741 186.046ZM279.69 176.534H275.336V174.466H286.481V176.534H282.128V187.622H279.69V176.561V176.534ZM291.568 187.753C292.528 187.77 293.477 187.544 294.326 187.095C295.108 186.676 295.759 186.048 296.206 185.28C296.654 184.467 296.889 183.554 296.889 182.626C296.889 181.698 296.654 180.784 296.206 179.972C295.748 179.207 295.088 178.583 294.299 178.17C293.447 177.737 292.505 177.512 291.55 177.512C290.596 177.512 289.654 177.737 288.802 178.17C288.013 178.583 287.353 179.207 286.895 179.972C286.447 180.784 286.211 181.698 286.211 182.626C286.211 183.554 286.447 184.467 286.895 185.28C287.347 186.058 288.007 186.693 288.802 187.113C289.645 187.56 290.588 187.787 291.541 187.771L291.568 187.753ZM291.568 185.744C291.173 185.757 290.778 185.686 290.411 185.537C290.044 185.388 289.712 185.164 289.437 184.879C288.899 184.243 288.605 183.436 288.605 182.603C288.605 181.77 288.899 180.964 289.437 180.328C290.01 179.774 290.776 179.464 291.573 179.464C292.37 179.464 293.136 179.774 293.709 180.328C294.252 180.961 294.551 181.768 294.551 182.603C294.551 183.438 294.252 184.245 293.709 184.879C293.432 185.163 293.098 185.387 292.73 185.536C292.361 185.685 291.966 185.756 291.568 185.744ZM323.772 174.48L319.414 187.636H316.828L313.581 177.9L310.279 187.636H307.67L303.317 174.48H305.849L309.114 184.478L312.51 174.48H314.759L318.078 184.536L321.438 174.48H323.772ZM329.287 187.767C328.333 187.782 327.391 187.556 326.548 187.109C325.753 186.689 325.092 186.053 324.641 185.275C324.192 184.463 323.957 183.55 323.957 182.621C323.957 181.693 324.192 180.78 324.641 179.968C325.098 179.202 325.758 178.578 326.548 178.165C327.399 177.733 328.341 177.507 329.296 177.507C330.251 177.507 331.192 177.733 332.044 178.165C332.833 178.578 333.493 179.202 333.951 179.968C334.399 180.78 334.635 181.693 334.635 182.621C334.635 183.55 334.399 184.463 333.951 185.275C333.5 186.053 332.839 186.689 332.044 187.109C331.195 187.558 330.247 187.784 329.287 187.767ZM329.287 185.757C329.684 185.769 330.079 185.699 330.448 185.55C330.816 185.401 331.15 185.177 331.428 184.892C331.971 184.259 332.269 183.452 332.269 182.617C332.269 181.782 331.971 180.975 331.428 180.342C331.15 180.057 330.816 179.833 330.448 179.684C330.079 179.535 329.684 179.464 329.287 179.476C328.891 179.463 328.498 179.534 328.131 179.683C327.765 179.832 327.434 180.056 327.159 180.342C326.62 180.976 326.323 181.783 326.323 182.617C326.323 183.451 326.62 184.257 327.159 184.892C327.434 185.177 327.765 185.402 328.131 185.551C328.498 185.7 328.891 185.77 329.287 185.757ZM339.119 179.062C339.794 178.012 340.985 177.485 342.686 177.485V179.738C342.507 179.7 342.324 179.681 342.141 179.679C341.748 179.656 341.355 179.715 340.986 179.854C340.618 179.992 340.282 180.205 340 180.481C339.727 180.794 339.519 181.159 339.387 181.553C339.255 181.948 339.202 182.364 339.231 182.779V187.65H336.888V177.62H339.137V179.084L339.119 179.062ZM348.767 183.333L347.021 184.987V187.636H344.674V174.48H347.021V182.126L351.879 177.62H354.677L350.494 181.833L355.072 187.659H352.221L348.767 183.333Z" fill="#1DCEED"/>
</svg>
