<svg width="8" height="15" viewBox="0 0 8 15" fill="none" xmlns="http://www.w3.org/2000/svg">
<path d="M1.58331 14.2084C1.35939 14.2088 1.14239 14.1308 0.969978 13.9879C0.872938 13.9075 0.792724 13.8087 0.733928 13.6972C0.675133 13.5857 0.638911 13.4637 0.627338 13.3382C0.615766 13.2126 0.629069 13.0861 0.666487 12.9657C0.703905 12.8453 0.7647 12.7335 0.845394 12.6367L5.13873 7.50002L0.998728 2.35377C0.919123 2.25575 0.859676 2.14296 0.823804 2.02188C0.787932 1.90081 0.776342 1.77384 0.7897 1.64827C0.803059 1.5227 0.841102 1.40101 0.901643 1.29019C0.962185 1.17937 1.04403 1.08161 1.14248 1.00252C1.24163 0.915281 1.35775 0.849475 1.48354 0.809235C1.60934 0.768996 1.74209 0.755192 1.87347 0.76869C2.00485 0.782188 2.13202 0.822697 2.24701 0.887673C2.36199 0.95265 2.4623 1.04069 2.54164 1.14627L7.1704 6.89627C7.31135 7.06775 7.3884 7.28284 7.3884 7.50482C7.3884 7.72679 7.31135 7.94188 7.1704 8.11336L2.37873 13.8634C2.28259 13.9793 2.16047 14.071 2.02227 14.131C1.88406 14.1909 1.73368 14.2174 1.58331 14.2084Z" fill="white"/>
</svg>
