<svg width="160" height="57" viewBox="0 0 160 57" fill="none" xmlns="http://www.w3.org/2000/svg">
<path fill-rule="evenodd" clip-rule="evenodd" d="M0 28.2975C0 26.8502 1.16258 25.6965 2.57428 25.6965C3.98599 25.6965 5.14857 26.8712 5.14857 28.2975V54.3706C5.14857 55.818 3.98599 56.9716 2.57428 56.9716C1.16258 56.9716 0 55.797 0 54.3706V28.2975V28.2975ZM82.8753 29.4722C82.2317 28.1927 82.7507 26.6404 84.0171 25.9902C85.2835 25.3399 86.8198 25.8643 87.4633 27.1439L98.0719 48.5813L108.68 27.1439C109.324 25.8643 110.86 25.3399 112.127 25.9902C113.393 26.6404 113.912 28.1927 113.268 29.4722L100.376 55.5453C100.127 56.0277 99.7535 56.4472 99.2345 56.7199C97.9681 57.3702 96.4318 56.8458 95.7882 55.5662L82.8753 29.4722ZM131.621 56.9926C130.188 56.9926 129.046 55.818 129.046 54.3916C129.046 52.9652 130.209 51.7906 131.621 51.7906H150.969C152.028 51.7906 153.004 51.3501 153.71 50.6369L153.813 50.532C154.457 49.8398 154.851 48.8959 154.851 47.8681C154.851 46.7983 154.415 45.8124 153.71 45.0993C153.004 44.3861 152.049 43.9456 150.969 43.9456H140.651C138.16 43.9456 135.918 42.9178 134.278 41.2816C132.638 39.6245 131.641 37.3591 131.641 34.842C131.641 32.3249 132.659 30.0385 134.278 28.3814C134.34 28.3185 134.382 28.2766 134.444 28.2346C136.063 26.6824 138.264 25.7175 140.672 25.7175H144.534C145.966 25.7175 147.108 26.8922 147.108 28.3185C147.108 29.7659 145.945 30.9195 144.534 30.9195H140.672C139.655 30.9195 138.721 31.3181 138.036 31.9683L137.932 32.0732C137.226 32.7864 136.79 33.7513 136.79 34.842C136.79 35.9328 137.226 36.8977 137.911 37.6109C138.617 38.324 139.572 38.7436 140.651 38.7436H150.969C153.46 38.7436 155.723 39.7714 157.363 41.4075C159.003 43.0646 160 45.351 160 47.8681C160 50.3013 159.045 52.5247 157.509 54.1609C157.467 54.2238 157.405 54.2657 157.363 54.3287C155.723 55.9858 153.46 56.9926 150.969 56.9926H131.621V56.9926ZM15.4872 54.3706C15.4872 55.818 14.3246 56.9716 12.9129 56.9716C11.4805 56.9716 10.3387 55.797 10.3387 54.3706V28.2975C10.3387 26.8502 11.5012 25.6965 12.9129 25.6965C13.6395 25.6965 14.2831 25.9902 14.7606 26.4726L38.718 48.4764V28.2975C38.718 26.8502 39.8806 25.6965 41.2923 25.6965C42.7248 25.6965 43.8666 26.8712 43.8666 28.2975V54.3706C43.8666 54.9999 43.6382 55.6292 43.2023 56.1326C42.2473 57.2024 40.6072 57.2653 39.5692 56.3004L15.4872 34.1918V54.3706V54.3706Z" fill="#1DCFED"/>
<path fill-rule="evenodd" clip-rule="evenodd" d="M64.5231 25.6965C68.7997 25.6965 72.6611 27.4585 75.4638 30.2693C78.2664 33.101 79.9895 37.0026 79.9895 41.3236C79.9895 45.6446 78.2457 49.5461 75.4638 52.3779C72.6611 55.2096 68.7997 56.9506 64.5231 56.9506C60.2465 56.9506 56.385 55.2096 53.5824 52.3779C50.7797 49.5461 49.0566 45.6446 49.0566 41.3236C49.0566 37.0026 50.7797 33.101 53.5824 30.2693C56.385 27.4375 60.2465 25.6965 64.5231 25.6965ZM71.8307 33.961C69.9623 32.0732 67.388 30.8986 64.5231 30.8986C61.6789 30.8986 59.0839 32.0732 57.2155 33.961C55.347 35.8489 54.1844 38.4499 54.1844 41.3446C54.1844 44.2183 55.347 46.8403 57.2155 48.7281C59.0839 50.6159 61.6582 51.7906 64.5231 51.7906C67.3673 51.7906 69.9623 50.6159 71.8307 48.7281C73.6992 46.8403 74.8617 44.2392 74.8617 41.3446C74.8617 38.4499 73.6992 35.8489 71.8307 33.961Z" fill="white"/>
<path fill-rule="evenodd" clip-rule="evenodd" d="M118.729 28.2975C118.729 26.8502 119.891 25.6965 121.303 25.6965C122.714 25.6965 123.877 26.8712 123.877 28.2975V54.3706C123.877 55.818 122.714 56.9716 121.303 56.9716C119.891 56.9716 118.729 55.797 118.729 54.3706V28.2975Z" fill="#1DCFED"/>
<path fill-rule="evenodd" clip-rule="evenodd" d="M121.303 0C123.317 0 125.164 0.839036 126.493 2.18149L126.514 2.20247C127.843 3.54493 128.673 5.39081 128.673 7.44645C128.673 9.48112 127.843 11.327 126.514 12.6904L126.493 12.7114C125.164 14.0539 123.338 14.8929 121.303 14.8929C119.289 14.8929 117.462 14.0539 116.113 12.7114L116.092 12.6904C114.764 11.348 113.933 9.50209 113.933 7.44645C113.933 5.41179 114.764 3.54493 116.092 2.20247L116.113 2.18149C117.462 0.839036 119.289 0 121.303 0ZM121.303 4.69861C119.808 4.69861 118.583 5.91521 118.583 7.44645C118.583 8.95672 119.788 10.1943 121.303 10.1943C122.819 10.1943 124.023 8.9777 124.023 7.44645C124.023 5.93619 122.798 4.69861 121.303 4.69861Z" fill="white"/>
</svg>
