<svg width="100" height="100" viewBox="0 0 100 100" fill="none" xmlns="http://www.w3.org/2000/svg">
<circle cx="50" cy="50" r="48.5" stroke="#22C1D7" class="stroke-second-color-green"  stroke-width="3"/>
<path d="M75.0213 36.0685L72.22 28.9199C72.1959 28.7661 72.1336 28.6209 72.0389 28.4978C71.9442 28.3748 71.8201 28.2778 71.6782 28.2159C71.5363 28.1541 71.3812 28.1293 71.2273 28.144C71.0733 28.1587 70.9256 28.2123 70.7978 28.2999L63.262 31.1023C63.0568 31.202 62.8955 31.3745 62.809 31.5866C62.7225 31.7988 62.7169 32.0356 62.7932 32.2517C62.8696 32.4678 63.0225 32.6478 63.2227 32.7572C63.4229 32.8667 63.6561 32.8977 63.8776 32.8445L69.5049 30.7365L60.1097 51.5499L55.3137 43.3287C55.2286 43.1828 55.1055 43.0631 54.9579 42.9824C54.8102 42.9017 54.6435 42.8631 54.4756 42.8708C54.3078 42.8784 54.1452 42.932 54.0054 43.0258C53.8656 43.1196 53.7538 43.2501 53.6821 43.4031L46.7805 58.2335L41.2271 47.5199C41.1518 47.3615 41.0314 47.2291 40.8812 47.1397C40.731 47.0503 40.5579 47.0078 40.3837 47.0177C40.2188 47.0224 40.0582 47.0714 39.9186 47.1597C39.7789 47.248 39.6653 47.3724 39.5895 47.5199L30.9701 66.4981V29.2299C30.9701 28.9833 30.8728 28.7467 30.6996 28.5723C30.5264 28.3979 30.2915 28.2999 30.0466 28.2999C29.8017 28.2999 29.5668 28.3979 29.3936 28.5723C29.2204 28.7467 29.1231 28.9833 29.1231 29.2299V70.7699C29.1231 70.7699 29.1231 70.8133 29.1231 70.8319C29.1211 70.867 29.1211 70.9022 29.1231 70.9373C29.1231 70.9373 29.1231 70.9931 29.1231 71.0241C29.1231 71.0551 29.1231 71.0799 29.1231 71.1109L29.1662 71.1977L29.2093 71.2721L29.2647 71.3465L29.3201 71.4147L29.3878 71.4767L29.4555 71.5325L29.5479 71.5883L29.6033 71.6193L29.7449 71.6689H29.7818H29.9604H71.2103C71.4552 71.6689 71.6901 71.5709 71.8633 71.3965C72.0365 71.2221 72.1338 70.9856 72.1338 70.7389C72.1338 70.4923 72.0365 70.2557 71.8633 70.0813C71.6901 69.9069 71.4552 69.8089 71.2103 69.8089H31.4811L40.4637 50.0495L46.0047 60.7631C46.0844 60.917 46.2053 61.0455 46.3536 61.1338C46.502 61.2222 46.672 61.267 46.8443 61.2631C47.0166 61.2592 47.1845 61.2069 47.3288 61.1119C47.4731 61.017 47.5881 60.8833 47.6609 60.7259L54.6118 45.7963L59.4202 54.0361C59.5058 54.1831 59.63 54.3036 59.779 54.3844C59.928 54.4651 60.0962 54.5031 60.2652 54.4942C60.4342 54.4852 60.5976 54.4297 60.7374 54.3336C60.8771 54.2375 60.988 54.1046 61.0579 53.9493L71.2349 31.4681L73.3035 36.7505C73.3976 36.9738 73.5745 37.1512 73.7966 37.245C74.0187 37.3388 74.2684 37.3415 74.4925 37.2525C74.7165 37.1636 74.8972 36.99 74.996 36.7688C75.0948 36.5476 75.1038 36.2963 75.0213 36.0685Z" fill="white" class="fill-white"/>
<path d="M75.0214 36.0685L72.2201 28.9199C72.196 28.7661 72.1337 28.6209 72.039 28.4978C71.9443 28.3748 71.8203 28.2778 71.6784 28.2159C71.5365 28.1541 71.3813 28.1293 71.2274 28.144C71.0735 28.1587 70.9257 28.2123 70.7979 28.2999L63.2621 31.1023C63.057 31.202 62.8957 31.3745 62.8091 31.5866C62.7226 31.7988 62.717 32.0356 62.7934 32.2517C62.8697 32.4678 63.0227 32.6478 63.2228 32.7572C63.423 32.8667 63.6562 32.8977 63.8778 32.8445L69.505 30.7365L60.1099 51.5499L55.3138 43.3287C55.2287 43.1828 55.1057 43.0631 54.958 42.9824C54.8103 42.9017 54.6436 42.8631 54.4758 42.8708C54.3079 42.8784 54.1453 42.932 54.0055 43.0258C53.8657 43.1196 53.7539 43.2501 53.6823 43.4031L46.7806 58.2335L41.2273 47.5199C41.1519 47.3615 41.0315 47.2291 40.8813 47.1397C40.7312 47.0503 40.558 47.0078 40.3838 47.0177C40.219 47.0224 40.0584 47.0714 39.9187 47.1597C39.779 47.248 39.6654 47.3724 39.5896 47.5199L30.9702 66.4981L31.0001 68.5V69.8089H31.4812L40.4638 50.0495L46.0049 60.7631C46.0845 60.917 46.2054 61.0455 46.3538 61.1338C46.5021 61.2222 46.6721 61.267 46.8444 61.2631C47.0168 61.2592 47.1846 61.2069 47.3289 61.1119C47.4732 61.017 47.5883 60.8833 47.661 60.7259L54.6119 45.7963L59.4203 54.0361C59.506 54.1831 59.6301 54.3036 59.7791 54.3844C59.9281 54.4651 60.0964 54.5031 60.2654 54.4942C60.4344 54.4852 60.5977 54.4297 60.7375 54.3336C60.8773 54.2375 60.9881 54.1046 61.058 53.9493L71.235 31.4681L73.3037 36.7505C73.3977 36.9738 73.5746 37.1512 73.7967 37.245C74.0188 37.3388 74.2685 37.3415 74.4926 37.2525C74.7166 37.1636 74.8973 36.99 74.9961 36.7688C75.0949 36.5476 75.104 36.2963 75.0214 36.0685Z" fill="#22C1D7" class="fill-second-color-green"/>
</svg>
