<svg width="100" height="100" viewBox="0 0 100 100" fill="none" xmlns="http://www.w3.org/2000/svg">
<circle cx="50" cy="50" r="48.5" stroke="#22C1D7" stroke-width="3"/>
<path d="M75.0213 36.0688L72.22 28.9202C72.1959 28.7663 72.1336 28.6212 72.0389 28.4981C71.9442 28.375 71.8201 28.278 71.6782 28.2162C71.5363 28.1543 71.3812 28.1296 71.2273 28.1443C71.0733 28.1589 70.9256 28.2126 70.7978 28.3002L63.262 31.1026C63.0568 31.2022 62.8955 31.3747 62.809 31.5869C62.7225 31.799 62.7169 32.0359 62.7932 32.252C62.8696 32.468 63.0225 32.6481 63.2227 32.7575C63.4229 32.8669 63.6561 32.898 63.8776 32.8448L69.5049 30.7368L60.1097 51.5502L55.3137 43.329C55.2286 43.1831 55.1055 43.0633 54.9579 42.9826C54.8102 42.902 54.6435 42.8634 54.4756 42.871C54.3078 42.8787 54.1452 42.9323 54.0054 43.0261C53.8656 43.1199 53.7538 43.2503 53.6821 43.4034L46.7805 58.2338L41.2271 47.5202C41.1518 47.3617 41.0314 47.2294 40.8812 47.14C40.731 47.0506 40.5579 47.0081 40.3837 47.018C40.2188 47.0226 40.0582 47.0717 39.9186 47.16C39.7789 47.2483 39.6653 47.3727 39.5895 47.5202L30.9701 66.4984V29.2302C30.9701 28.9835 30.8728 28.747 30.6996 28.5725C30.5264 28.3981 30.2915 28.3002 30.0466 28.3002C29.8017 28.3002 29.5668 28.3981 29.3936 28.5725C29.2204 28.747 29.1231 28.9835 29.1231 29.2302V70.7702C29.1231 70.7702 29.1231 70.8136 29.1231 70.8322C29.1211 70.8673 29.1211 70.9024 29.1231 70.9376C29.1231 70.9376 29.1231 70.9934 29.1231 71.0244C29.1231 71.0554 29.1231 71.0802 29.1231 71.1112L29.1662 71.198L29.2093 71.2724L29.2647 71.3468L29.3201 71.415L29.3878 71.477L29.4555 71.5328L29.5479 71.5886L29.6033 71.6196L29.7449 71.6692H29.7818H29.9604H71.2103C71.4552 71.6692 71.6901 71.5712 71.8633 71.3968C72.0365 71.2224 72.1338 70.9858 72.1338 70.7392C72.1338 70.4925 72.0365 70.256 71.8633 70.0815C71.6901 69.9071 71.4552 69.8092 71.2103 69.8092H31.4811L40.4637 50.0498L46.0047 60.7634C46.0844 60.9173 46.2053 61.0457 46.3536 61.1341C46.502 61.2224 46.672 61.2672 46.8443 61.2633C47.0166 61.2595 47.1845 61.2071 47.3288 61.1122C47.4731 61.0172 47.5881 60.8835 47.6609 60.7262L54.6118 45.7966L59.4202 54.0364C59.5058 54.1834 59.63 54.3038 59.779 54.3846C59.928 54.4654 60.0962 54.5034 60.2652 54.4944C60.4342 54.4855 60.5976 54.4299 60.7374 54.3338C60.8771 54.2377 60.988 54.1048 61.0579 53.9496L71.2349 31.4684L73.3035 36.7508C73.3976 36.974 73.5745 37.1515 73.7966 37.2453C74.0187 37.339 74.2684 37.3417 74.4925 37.2528C74.7165 37.1638 74.8972 36.9903 74.996 36.7691C75.0948 36.5479 75.1038 36.2966 75.0213 36.0688Z" fill="white"/>
</svg>
