<svg width="100" height="100" viewBox="0 0 100 100" fill="none" xmlns="http://www.w3.org/2000/svg">
<circle cx="50" cy="50" r="48.5" stroke="#22C1D7" stroke-width="3"/>
<path d="M71.3956 55.2198H67.0759V36.9498C67.0759 36.7191 66.9849 36.4978 66.8229 36.3346C66.6609 36.1715 66.4412 36.0798 66.212 36.0798H59.5886V27.6698C59.5886 27.4391 59.4976 27.2178 59.3356 27.0546C59.1736 26.8915 58.9538 26.7998 58.7247 26.7998H40.8703C40.6411 26.7998 40.4214 26.8915 40.2594 27.0546C40.0974 27.2178 40.0063 27.4391 40.0063 27.6698V36.0798H33.3829C33.1538 36.0798 32.934 36.1715 32.772 36.3346C32.61 36.4978 32.519 36.7191 32.519 36.9498V55.2198H28.1994C27.9702 55.2198 27.7505 55.3115 27.5885 55.4746C27.4265 55.6378 27.3354 55.8591 27.3354 56.0898V67.1098C27.3354 67.3405 27.4265 67.5618 27.5885 67.725C27.7505 67.8882 27.9702 67.9798 28.1994 67.9798H39.1424C39.3715 67.9798 39.5913 67.8882 39.7533 67.725C39.9153 67.5618 40.0063 67.3405 40.0063 67.1098V56.0898C40.0063 55.8591 39.9153 55.6378 39.7533 55.4746C39.5913 55.3115 39.3715 55.2198 39.1424 55.2198H34.2468V37.8198H40.0063V45.6498C40.0063 45.8805 40.0974 46.1018 40.2594 46.265C40.4214 46.4281 40.6411 46.5198 40.8703 46.5198H49.2215V55.2198H44.326C44.0968 55.2198 43.8771 55.3115 43.7151 55.4746C43.553 55.6378 43.462 55.8591 43.462 56.0898V67.1098C43.462 67.3405 43.553 67.5618 43.7151 67.725C43.8771 67.8882 44.0968 67.9798 44.326 67.9798H55.269C55.4981 67.9798 55.7179 67.8882 55.8799 67.725C56.0419 67.5618 56.1329 67.3405 56.1329 67.1098V56.0898C56.1329 55.8591 56.0419 55.6378 55.8799 55.4746C55.7179 55.3115 55.4981 55.2198 55.269 55.2198H50.9494V46.5198H58.7247C58.9538 46.5198 59.1736 46.4281 59.3356 46.265C59.4976 46.1018 59.5886 45.8805 59.5886 45.6498V37.8198H65.3481V55.2198H60.4525C60.2234 55.2198 60.0037 55.3115 59.8416 55.4746C59.6796 55.6378 59.5886 55.8591 59.5886 56.0898V67.1098C59.5886 67.3405 59.6796 67.5618 59.8416 67.725C60.0037 67.8882 60.2234 67.9798 60.4525 67.9798H71.3956C71.6247 67.9798 71.8444 67.8882 72.0065 67.725C72.1685 67.5618 72.2595 67.3405 72.2595 67.1098V56.0898C72.2595 55.8591 72.1685 55.6378 72.0065 55.4746C71.8444 55.3115 71.6247 55.2198 71.3956 55.2198ZM38.2785 66.2398H29.0633V56.9598H38.2785V66.2398ZM54.4051 66.2398H45.1899V56.9598H54.4051V66.2398ZM57.8608 44.7798H41.7342V28.5398H57.8608V44.7798ZM70.5316 66.2398H61.3165V56.9598H70.5316V66.2398Z" fill="white"/>
</svg>
