<svg width="101" height="100" viewBox="0 0 101 100" fill="none" xmlns="http://www.w3.org/2000/svg">
<path fill-rule="evenodd" clip-rule="evenodd" d="M42.0974 27C41.8745 27 41.6609 27.091 41.5031 27.2535C41.3454 27.4161 41.2568 27.6362 41.2568 27.8662V36.2393H34.8128C34.5901 36.2393 34.376 36.3308 34.2186 36.4929C34.0608 36.6555 33.9722 36.8756 33.9722 37.1055V55.296H35.6534V37.9718H41.2568V45.7676C41.2568 45.9972 41.3454 46.2177 41.5031 46.3799C41.6609 46.5424 41.8745 46.6338 42.0974 46.6338H50.2225V55.296H51.9037V46.6338H59.4684C59.6912 46.6338 59.9052 46.5424 60.0626 46.3799C60.2203 46.2177 60.3089 45.9972 60.3089 45.7676V37.9718H65.9126V55.296H67.5935V37.1055C67.5935 36.8756 67.5048 36.6555 67.3475 36.4929C67.1897 36.3308 66.976 36.2393 66.7529 36.2393H60.3089V27.8662C60.3089 27.6362 60.2203 27.4161 60.0626 27.2535C59.9052 27.091 59.6912 27 59.4684 27H42.0974ZM45.9455 28.7324H58.6277V44.9014H42.938V28.7324H45.9455Z" fill="#22C1D7" class="fill-second-color-green"/>
<path fill-rule="evenodd" clip-rule="evenodd" d="M33.9724 55.2595V55.296H29.7698C29.5469 55.296 29.3333 55.3871 29.1756 55.5495C29.0178 55.7118 28.9292 55.9323 28.9292 56.1618V67.1337C28.9292 67.3636 29.0178 67.5837 29.1756 67.7463C29.3333 67.909 29.5469 68 29.7698 68H40.4167C40.6396 68 40.8532 67.909 41.011 67.7463C41.1687 67.5837 41.257 67.3636 41.257 67.1337V56.1618C41.257 55.9323 41.1687 55.7118 41.011 55.5495C40.8532 55.3871 40.6396 55.296 40.4167 55.296H35.6537V55.2595H33.9724ZM50.2227 55.2595V55.296H45.4601C45.2368 55.296 45.0232 55.3871 44.8654 55.5495C44.7077 55.7118 44.6195 55.9323 44.6195 56.1618V67.1337C44.6195 67.3636 44.7077 67.5837 44.8654 67.7463C45.0232 67.909 45.2368 68 45.4601 68H56.1066C56.3294 68 56.5435 67.909 56.7008 67.7463C56.8586 67.5837 56.9472 67.3636 56.9472 67.1337V56.1618C56.9472 55.9323 56.8586 55.7118 56.7008 55.5495C56.5435 55.3871 56.3294 55.296 56.1066 55.296H51.9039V55.2595H50.2227ZM65.9129 55.2595V55.296H61.1498C60.9267 55.296 60.713 55.3871 60.5553 55.5495C60.3978 55.7118 60.3092 55.9323 60.3092 56.1618V67.1337C60.3092 67.3636 60.3978 67.5837 60.5553 67.7463C60.713 67.909 60.9267 68 61.1498 68H71.7964C72.0193 68 72.2332 67.909 72.391 67.7463C72.5485 67.5837 72.6371 67.3636 72.6371 67.1337V56.1618C72.6371 55.9323 72.5485 55.7118 72.391 55.5495C72.2332 55.3871 72.0193 55.296 71.7964 55.296H67.5938V55.2595H65.9129ZM39.5761 66.2679H30.6104V57.0281H39.5761V66.2679ZM55.266 66.2679H46.3003V57.0281H55.266V66.2679ZM70.9559 66.2679H61.9904V57.0281H70.9559V66.2679Z" fill="white" class="fill-white"/>
<path d="M99.3961 50C99.3961 76.7865 77.6916 98.5 50.9192 98.5C24.1469 98.5 2.44238 76.7865 2.44238 50C2.44238 23.2135 24.1469 1.5 50.9192 1.5C77.6916 1.5 99.3961 23.2135 99.3961 50Z" stroke="#22C1D7" class="stroke-second-color-green"  stroke-width="3"/>
</svg>
