<svg width="100" height="100" viewBox="0 0 100 100" fill="none" xmlns="http://www.w3.org/2000/svg">
<circle cx="50" cy="50" r="48.5" stroke="#22C1D7" class="stroke-second-color-green"  stroke-width="3"/>
<path d="M34.7924 35.806C34.7326 35.623 34.617 35.4636 34.462 35.3506C34.307 35.2376 34.1206 35.1768 33.9292 35.1768C33.7379 35.1768 33.5514 35.2376 33.3964 35.3506C33.2414 35.4636 33.1258 35.623 33.066 35.806L24.9915 60.2061C24.9537 60.3202 24.9386 60.4407 24.9471 60.5608C24.9556 60.6808 24.9874 60.7979 25.0409 60.9056C25.0943 61.0132 25.1683 61.1092 25.2585 61.188C25.3488 61.2668 25.4536 61.327 25.567 61.365C25.6803 61.4031 25.8 61.4183 25.9192 61.4098C26.0384 61.4012 26.1547 61.3691 26.2616 61.3153C26.3685 61.2615 26.4638 61.187 26.5421 61.0961C26.6203 61.0052 26.6801 60.8997 26.7179 60.7855L29.1408 53.3801H38.4753C38.5457 53.3885 38.6169 53.3885 38.6873 53.3801L41.1466 60.8099C41.2229 61.0405 41.387 61.2311 41.6029 61.3397C41.8187 61.4484 42.0686 61.4663 42.2975 61.3894C42.5264 61.3126 42.7157 61.1473 42.8236 60.93C42.9315 60.7126 42.9493 60.461 42.8729 60.2305L34.7924 35.806ZM29.7769 51.5501L33.9322 38.9902L38.0937 51.5501H29.7769Z" fill="white" class="fill-white"/>
<path d="M74.5894 48.5673C73.703 47.6543 72.6095 46.9719 71.4032 46.5787C72.4698 45.7603 73.2522 44.6234 73.6388 43.3303C74.0253 42.0373 73.9961 40.6543 73.5553 39.3789C73.1146 38.1036 72.2849 37.0012 71.1847 36.2291C70.0846 35.4571 68.7702 35.055 67.4295 35.0802H62.099C61.8581 35.0802 61.627 35.1766 61.4566 35.3482C61.2862 35.5198 61.1904 35.7525 61.1904 35.9952V60.3952C61.1904 60.6379 61.2862 60.8706 61.4566 61.0422C61.627 61.2138 61.8581 61.3102 62.099 61.3102H68.6713C72.7479 61.3102 76.3339 57.9491 76.5096 53.9902C76.5799 53.0017 76.4455 52.0092 76.115 51.0757C75.7845 50.1422 75.2649 49.288 74.5894 48.5673ZM63.0076 36.9102H67.4295C68.2962 36.8842 69.1521 37.1089 69.8959 37.5576C70.6397 38.0062 71.2403 38.6602 71.6265 39.4419C72.0127 40.2236 72.1684 41.1004 72.0752 41.9685C71.9819 42.8366 71.6436 43.6596 71.1003 44.34C70.3912 45.2368 69.3725 45.8314 68.2473 46.0053C68.005 46.0053 67.7587 46.0053 67.5083 46.0053C67.3809 46.0052 67.255 46.0322 67.1388 46.0846L63.0076 46.1334V36.9102ZM68.6713 59.4802H63.0076V47.9634L67.5507 47.8902C67.8119 47.8899 68.0729 47.8736 68.3321 47.8414C70.4643 47.9756 72.1664 48.6588 73.281 49.83C73.7815 50.3727 74.1653 51.0137 74.4082 51.7128C74.6511 52.4119 74.7478 53.1541 74.6924 53.8926C74.5591 56.9243 71.803 59.4802 68.6713 59.4802Z" fill="#22C1D7" class="fill-second-color-green"/>
<path d="M57.168 25.2467C57.0511 25.2177 56.9295 25.2125 56.8105 25.2312C56.6915 25.25 56.5774 25.2924 56.4748 25.3559C56.3722 25.4195 56.2832 25.503 56.213 25.6015C56.1427 25.7001 56.0926 25.8117 56.0656 25.9299L45.1623 70.6673C45.1264 70.7864 45.1149 70.9116 45.1287 71.0352C45.1425 71.1589 45.1812 71.2784 45.2424 71.3865C45.3036 71.4946 45.3861 71.589 45.4847 71.6639C45.5834 71.7388 45.6962 71.7927 45.8163 71.8222C45.9363 71.8517 46.0611 71.8562 46.1829 71.8355C46.3048 71.8148 46.4212 71.7692 46.5249 71.7017C46.6287 71.6341 46.7177 71.5459 46.7865 71.4425C46.8553 71.3392 46.9024 71.2227 46.925 71.1004L57.8283 26.363C57.8582 26.246 57.8649 26.1242 57.8479 26.0047C57.8308 25.8851 57.7905 25.7701 57.7291 25.6663C57.6677 25.5626 57.5865 25.472 57.4902 25.4C57.3939 25.328 57.2844 25.2759 57.168 25.2467Z" fill="white" class="fill-white"/>
</svg>
