<svg width="100" height="100" viewBox="0 0 100 100" fill="none" xmlns="http://www.w3.org/2000/svg">
<circle cx="50" cy="50" r="48.5" stroke="#22C1D7" class="stroke-second-color-green"  stroke-width="3"/>
<path d="M49.9999 51.3721C47.0013 51.3752 44.1263 52.5761 42.006 54.7114C39.8856 56.8467 38.693 59.7419 38.6899 62.7616C38.6899 62.994 38.7816 63.2168 38.9448 63.3811C39.1079 63.5454 39.3292 63.6377 39.5599 63.6377H60.4399C60.6707 63.6377 60.892 63.5454 61.0551 63.3811C61.2183 63.2168 61.3099 62.994 61.3099 62.7616C61.3069 59.7419 60.1143 56.8467 57.9939 54.7114C55.8735 52.5761 52.9986 51.3752 49.9999 51.3721ZM40.4705 61.8855C40.6826 59.487 41.7786 57.2552 43.5428 55.6298C45.307 54.0043 47.6116 53.1028 50.0028 53.1028C52.394 53.1028 54.6986 54.0043 56.4628 55.6298C58.2271 57.2552 59.3231 59.487 59.5351 61.8855H40.4705Z" fill="#22C1D7" class="fill-second-color-green"/>
<path d="M49.42 48.7436C50.7392 48.7436 52.0288 48.3497 53.1257 47.6116C54.2225 46.8736 55.0774 45.8245 55.5823 44.5972C56.0871 43.3698 56.2192 42.0193 55.9618 40.7163C55.7045 39.4134 55.0692 38.2165 54.1364 37.2772C53.2036 36.3378 52.0151 35.6981 50.7213 35.4389C49.4274 35.1797 48.0863 35.3127 46.8675 35.8211C45.6487 36.3295 44.607 37.1904 43.8741 38.295C43.1412 39.3996 42.75 40.6982 42.75 42.0267C42.7515 43.8077 43.4548 45.5153 44.7053 46.7746C45.9558 48.0339 47.6515 48.7421 49.42 48.7436ZM49.42 37.0621C50.3951 37.0621 51.3482 37.3532 52.159 37.8988C52.9697 38.4443 53.6016 39.2197 53.9747 40.1268C54.3479 41.034 54.4455 42.0322 54.2553 42.9953C54.0651 43.9583 53.5955 44.843 52.906 45.5373C52.2166 46.2316 51.3381 46.7044 50.3818 46.896C49.4255 47.0876 48.4342 46.9892 47.5334 46.6135C46.6325 46.2377 45.8626 45.6014 45.3209 44.7849C44.7791 43.9685 44.49 43.0086 44.49 42.0267C44.4915 40.7105 45.0114 39.4486 45.9357 38.5179C46.8599 37.5872 48.113 37.0636 49.42 37.0621Z" fill="#22C1D7" class="fill-second-color-green"/>
<path d="M77.2601 49.0357H74.3311C74.0395 42.8388 71.4272 36.9833 67.0202 32.6482C62.6132 28.3132 56.7389 25.8207 50.5801 25.6725V22.4601C50.5801 22.2277 50.4885 22.0049 50.3253 21.8406C50.1621 21.6763 49.9409 21.584 49.7101 21.584C49.4794 21.584 49.2581 21.6763 49.0949 21.8406C48.9318 22.0049 48.8401 22.2277 48.8401 22.4601V25.7017C42.7902 25.9991 37.0666 28.553 32.7835 32.8662C28.5004 37.1793 25.9644 42.9432 25.6691 49.0357H22.7401C22.5094 49.0357 22.2881 49.128 22.1249 49.2923C21.9618 49.4566 21.8701 49.6795 21.8701 49.9118C21.8701 50.1442 21.9618 50.367 22.1249 50.5313C22.2881 50.6956 22.5094 50.7879 22.7401 50.7879H25.6401C25.7872 56.9901 28.2624 62.9057 32.5671 67.3437C36.8719 71.7817 42.6865 74.4123 48.8401 74.706V77.9476C48.8401 78.18 48.9318 78.4028 49.0949 78.5671C49.2581 78.7314 49.4794 78.8237 49.7101 78.8237C49.9409 78.8237 50.1621 78.7314 50.3253 78.5671C50.4885 78.4028 50.5801 78.18 50.5801 77.9476V74.7352C56.8406 74.5868 62.8039 72.0161 67.232 67.5569C71.6601 63.0977 74.2128 57.0925 74.3601 50.7879H77.2601C77.4909 50.7879 77.7121 50.6956 77.8753 50.5313C78.0385 50.367 78.1301 50.1442 78.1301 49.9118C78.1301 49.6795 78.0385 49.4566 77.8753 49.2923C77.7121 49.128 77.4909 49.0357 77.2601 49.0357ZM50.5801 72.983V70.3546C50.5801 70.1222 50.4885 69.8994 50.3253 69.7351C50.1621 69.5708 49.9409 69.4785 49.7101 69.4785C49.4794 69.4785 49.2581 69.5708 49.0949 69.7351C48.9318 69.8994 48.8401 70.1222 48.8401 70.3546V72.9538C43.148 72.6613 37.7753 70.2157 33.7965 66.1061C29.8177 61.9964 27.5262 56.5257 27.3801 50.7879H30.2801C30.5109 50.7879 30.7321 50.6956 30.8953 50.5313C31.0585 50.367 31.1501 50.1442 31.1501 49.9118C31.1501 49.6795 31.0585 49.4566 30.8953 49.2923C30.7321 49.128 30.5109 49.0357 30.2801 49.0357H27.4091C27.7037 43.4081 30.0561 38.0893 34.0132 34.1045C37.9702 30.1196 43.2518 27.7506 48.8401 27.454V30.0531C48.8401 30.2855 48.9318 30.5083 49.0949 30.6726C49.2581 30.8369 49.4794 30.9293 49.7101 30.9293C49.9409 30.9293 50.1621 30.8369 50.3253 30.6726C50.4885 30.5083 50.5801 30.2855 50.5801 30.0531V27.4248C56.2778 27.5718 61.7103 29.8795 65.7913 33.8863C69.8722 37.8931 72.3007 43.3035 72.5911 49.0357H69.7201C69.4894 49.0357 69.2681 49.128 69.1049 49.2923C68.9418 49.4566 68.8501 49.6795 68.8501 49.9118C68.8501 50.1442 68.9418 50.367 69.1049 50.5313C69.2681 50.6956 69.4894 50.7879 69.7201 50.7879H72.6201C72.4732 56.6278 70.104 62.1877 66.0021 66.3184C61.9002 70.4492 56.3792 72.835 50.5801 72.983Z" fill="white" class="fill-white"/>
</svg>
