<svg width="100" height="100" viewBox="0 0 100 100" fill="none" xmlns="http://www.w3.org/2000/svg">
<circle cx="50" cy="50" r="48.5" stroke="#22C1D7" class="stroke-second-color-green"  stroke-width="3"/>
<path d="M75.871 63.45H65.6663V36.8C65.6663 34.7313 64.8502 32.7474 63.3977 31.2846C61.9451 29.8218 59.975 29 57.9208 29H29.8432C29.6948 29 29.5463 28.961 29.3914 28.948C28.3177 28.8796 27.2414 29.0323 26.2283 29.3966C25.2151 29.7609 24.2862 30.3293 23.4984 31.067C22.7674 31.7488 22.1842 32.5753 21.7854 33.4947C21.3867 34.4142 21.1809 35.4067 21.1812 36.41C21.1812 36.6686 21.2832 36.9166 21.4647 37.0995C21.6463 37.2823 21.8926 37.385 22.1493 37.385H34.6842V63.9115C34.6519 65.9188 35.3812 67.8629 36.7233 69.3473C38.0655 70.8318 39.9193 71.7447 41.9069 71.9H41.9456H42.1005H69.1195C70.1155 71.9216 71.106 71.7453 72.0344 71.3813C72.9627 71.0173 73.8108 70.4726 74.5301 69.7785C75.2493 69.0843 75.8258 68.2542 76.2264 67.3357C76.627 66.4171 76.844 65.4281 76.865 64.425C76.8651 64.2948 76.8392 64.1658 76.7889 64.0458C76.7387 63.9258 76.665 63.8171 76.5724 63.7262C76.4797 63.6354 76.3699 63.5641 76.2494 63.5167C76.129 63.4692 76.0003 63.4466 75.871 63.45ZM23.2079 35.435C23.4223 34.3046 23.9899 33.2729 24.828 32.4905C25.7931 31.602 27.0233 31.0603 28.3264 30.95C28.4014 30.959 28.4773 30.959 28.5523 30.95H29.7787C30.9197 31.1419 31.9784 31.6705 32.8207 32.4689C33.663 33.2674 34.2509 34.2997 34.5099 35.435H23.2079ZM42.0231 69.95C40.5287 69.8247 39.1379 69.1303 38.1342 68.0084C37.1304 66.8864 36.5891 65.4213 36.6206 63.9115V36.9235C36.6247 35.802 36.3974 34.6919 35.9529 33.6636C35.5085 32.6353 34.8566 31.7112 34.0387 30.95H57.9208C59.4614 30.95 60.939 31.5664 62.0284 32.6635C63.1179 33.7606 63.7299 35.2485 63.7299 36.8V63.45H49.1554C48.8986 63.45 48.6524 63.5528 48.4708 63.7356C48.2892 63.9185 48.1872 64.1665 48.1872 64.425C48.1828 65.1585 48.0287 65.8831 47.7345 66.5541C47.4402 67.225 47.0121 67.8278 46.4767 68.325C45.8835 68.8872 45.1825 69.3214 44.4166 69.6008C43.6507 69.8803 42.8362 69.9991 42.0231 69.95ZM69.1324 69.95H47.5934L47.7935 69.768C49.0282 68.6202 49.829 67.0763 50.059 65.4H74.8124C74.5343 66.7054 73.8145 67.8729 72.776 68.7029C71.7376 69.5329 70.445 69.9737 69.1195 69.95H69.1324Z" fill="white" class="fill-white"/>
<path d="M41.4618 43.3001H58.8893C59.146 43.3001 59.3923 43.1974 59.5739 43.0145C59.7555 42.8317 59.8575 42.5837 59.8575 42.3251C59.8575 42.0665 59.7555 41.8185 59.5739 41.6357C59.3923 41.4528 59.146 41.3501 58.8893 41.3501H41.4618C41.2051 41.3501 40.9588 41.4528 40.7772 41.6357C40.5957 41.8185 40.4937 42.0665 40.4937 42.3251C40.4937 42.5837 40.5957 42.8317 40.7772 43.0145C40.9588 43.1974 41.2051 43.3001 41.4618 43.3001Z" fill="#22C1D7" class="fill-second-color-green"/>
<path d="M41.4618 49.1502H58.8893C59.146 49.1502 59.3923 49.0475 59.5739 48.8646C59.7555 48.6818 59.8575 48.4338 59.8575 48.1752C59.8575 47.9166 59.7555 47.6686 59.5739 47.4858C59.3923 47.3029 59.146 47.2002 58.8893 47.2002H41.4618C41.2051 47.2002 40.9588 47.3029 40.7772 47.4858C40.5957 47.6686 40.4937 47.9166 40.4937 48.1752C40.4937 48.4338 40.5957 48.6818 40.7772 48.8646C40.9588 49.0475 41.2051 49.1502 41.4618 49.1502Z" fill="#22C1D7" class="fill-second-color-green"/>
<path d="M51.4665 54.0248C51.4665 53.7662 51.3645 53.5182 51.1829 53.3354C51.0013 53.1525 50.7551 53.0498 50.4983 53.0498H41.4618C41.2051 53.0498 40.9588 53.1525 40.7772 53.3354C40.5957 53.5182 40.4937 53.7662 40.4937 54.0248C40.4937 54.2834 40.5957 54.5314 40.7772 54.7142C40.9588 54.8971 41.2051 54.9998 41.4618 54.9998H50.4983C50.7551 54.9998 51.0013 54.8971 51.1829 54.7142C51.3645 54.5314 51.4665 54.2834 51.4665 54.0248Z" fill="#22C1D7" class="fill-second-color-green"/>
</svg>
