<svg width="100" height="100" viewBox="0 0 100 100" fill="none" xmlns="http://www.w3.org/2000/svg">
<circle cx="50" cy="50" r="48.5" stroke="#22C1D7" stroke-width="3"/>
<path d="M66.252 26.54H37.4545C37.2254 26.5402 37.0058 26.632 36.844 26.7952L31.0845 32.5662C31.0441 32.6143 31.0094 32.6668 30.9808 32.7228C30.9383 32.7894 30.9054 32.8616 30.8829 32.9374C30.8614 33.0032 30.8479 33.0714 30.8426 33.1404C30.8426 33.1404 30.8426 33.1694 30.8426 33.1868C30.8426 33.2042 30.8426 33.1868 30.8426 33.1868V69.7268C30.8395 69.8421 30.8592 69.9567 30.9006 70.0642C30.9419 70.1717 31.004 70.2699 31.0833 70.353C31.1626 70.4361 31.2575 70.5025 31.3625 70.5483C31.4675 70.5942 31.5806 70.6185 31.695 70.62H60.4925C60.5969 70.6196 60.7003 70.5999 60.7977 70.562C60.8984 70.5199 60.9903 70.4588 61.0684 70.3822L66.8279 64.6112C66.9165 64.5315 66.9878 64.4342 67.0374 64.3254C67.0869 64.2166 67.1136 64.0987 67.1159 63.979V27.41C67.1159 27.1793 67.0249 26.958 66.8628 26.7949C66.7008 26.6317 66.4811 26.54 66.252 26.54ZM37.8116 28.28H64.167L60.1354 32.34H33.7569L37.8116 28.28ZM32.5589 68.88V34.08H59.5709V34.1148H59.6055V68.88H32.5589ZM61.3564 67.6562V33.5696L65.388 29.5096V63.6194L61.3564 67.6562Z" fill="white"/>
<path d="M50.7014 37.5601C50.4723 37.5601 50.2526 37.6517 50.0906 37.8149C49.9285 37.978 49.8375 38.1993 49.8375 38.4301V42.7801C49.8375 43.2806 49.7353 43.7757 49.5371 44.2347C49.3389 44.6937 49.0491 45.1067 48.6856 45.4481C48.2679 45.8381 47.7758 46.1386 47.2391 46.331C46.7024 46.5234 46.1325 46.6039 45.564 46.5675C44.5437 46.5183 43.5813 46.0761 42.8759 45.3322C42.1705 44.5884 41.776 43.5998 41.7742 42.5713V38.4301C41.7742 38.1993 41.6832 37.978 41.5212 37.8149C41.3592 37.6517 41.1394 37.5601 40.9103 37.5601C40.6812 37.5601 40.4614 37.6517 40.2994 37.8149C40.1374 37.978 40.0464 38.1993 40.0464 38.4301V42.5713C40.0547 44.0378 40.6193 45.4457 41.6247 46.5067C42.6301 47.5677 44.0002 48.2015 45.4545 48.2785H45.8001C47.2966 48.2771 48.7371 47.7052 49.8318 46.6777C50.37 46.1819 50.8016 45.5802 51.0998 44.9098C51.398 44.2394 51.5564 43.5146 51.5654 42.7801V38.4301C51.5654 38.1993 51.4744 37.978 51.3123 37.8149C51.1503 37.6517 50.9306 37.5601 50.7014 37.5601Z" fill="#22C1D7"/>
</svg>
