<svg width="100" height="100" viewBox="0 0 100 100" fill="none" xmlns="http://www.w3.org/2000/svg">
<path d="M74.5894 47.5671C73.703 46.6541 72.6095 45.9716 71.4032 45.5785C72.4698 44.7601 73.2522 43.6231 73.6388 42.3301C74.0253 41.037 73.9961 39.654 73.5553 38.3787C73.1146 37.1033 72.2849 36.0009 71.1847 35.2289C70.0846 34.4569 68.7702 34.0547 67.4295 34.08H62.099C61.8581 34.08 61.627 34.1764 61.4566 34.348C61.2862 34.5196 61.1904 34.7523 61.1904 34.995V59.395C61.1904 59.6376 61.2862 59.8704 61.4566 60.042C61.627 60.2136 61.8581 60.31 62.099 60.31H68.6713C72.7479 60.31 76.3339 56.9489 76.5096 52.99C76.5799 52.0014 76.4455 51.009 76.115 50.0755C75.7845 49.142 75.2649 48.2878 74.5894 47.5671ZM63.0076 35.91H67.4295C68.2962 35.884 69.1521 36.1087 69.8959 36.5573C70.6397 37.006 71.2403 37.6599 71.6265 38.4416C72.0127 39.2234 72.1684 40.1002 72.0752 40.9682C71.9819 41.8363 71.6436 42.6593 71.1003 43.3398C70.3912 44.2365 69.3725 44.8311 68.2473 45.0051C68.005 45.0051 67.7587 45.0051 67.5083 45.0051C67.3809 45.005 67.255 45.032 67.1388 45.0844L63.0076 45.1332V35.91ZM68.6713 58.48H63.0076V46.9632L67.5507 46.89C67.8119 46.8897 68.0729 46.8734 68.3321 46.8412C70.4643 46.9754 72.1664 47.6586 73.281 48.8298C73.7815 49.3724 74.1653 50.0135 74.4082 50.7126C74.6511 51.4117 74.7478 52.1538 74.6924 52.8924C74.5591 55.9241 71.803 58.48 68.6713 58.48Z" fill="white" class="fill-white"/>
<path d="M57.168 24.2467C57.0511 24.2177 56.9295 24.2125 56.8105 24.2312C56.6915 24.25 56.5774 24.2924 56.4748 24.3559C56.3722 24.4195 56.2832 24.503 56.213 24.6015C56.1427 24.7001 56.0926 24.8117 56.0656 24.9299L45.1623 69.6673C45.1264 69.7864 45.1149 69.9116 45.1287 70.0352C45.1425 70.1589 45.1812 70.2784 45.2424 70.3865C45.3036 70.4946 45.3861 70.589 45.4847 70.6639C45.5834 70.7388 45.6962 70.7927 45.8163 70.8222C45.9363 70.8517 46.0611 70.8562 46.1829 70.8355C46.3048 70.8148 46.4212 70.7692 46.5249 70.7017C46.6287 70.6341 46.7177 70.5459 46.7865 70.4425C46.8553 70.3392 46.9024 70.2227 46.925 70.1004L57.8283 25.363C57.8582 25.246 57.8649 25.1242 57.8479 25.0047C57.8308 24.8851 57.7905 24.7701 57.7291 24.6663C57.6677 24.5626 57.5865 24.472 57.4902 24.4C57.3939 24.328 57.2844 24.2759 57.168 24.2467Z" fill="#22C1D7" class="fill-second-color-green"/>
<path d="M34.7924 34.806C34.7326 34.623 34.617 34.4636 34.462 34.3506C34.307 34.2376 34.1206 34.1768 33.9292 34.1768C33.7379 34.1768 33.5514 34.2376 33.3964 34.3506C33.2414 34.4636 33.1258 34.623 33.066 34.806L24.9915 59.2061C24.9537 59.3202 24.9386 59.4407 24.9471 59.5608C24.9556 59.6808 24.9874 59.7979 25.0409 59.9056C25.0943 60.0132 25.1683 60.1092 25.2585 60.188C25.3488 60.2668 25.4536 60.327 25.567 60.365C25.6803 60.4031 25.8 60.4183 25.9192 60.4098C26.0384 60.4012 26.1547 60.3691 26.2616 60.3153C26.3685 60.2615 26.4638 60.187 26.5421 60.0961C26.6203 60.0052 26.6801 59.8997 26.7179 59.7855L29.1408 52.3801H38.4753C38.5457 52.3885 38.6169 52.3885 38.6873 52.3801L41.1466 59.8099C41.2229 60.0405 41.387 60.2311 41.6029 60.3397C41.8187 60.4484 42.0686 60.4663 42.2975 60.3894C42.5264 60.3126 42.7157 60.1473 42.8236 59.93C42.9315 59.7126 42.9493 59.461 42.8729 59.2305L34.7924 34.806ZM29.7769 50.5501L33.9322 37.9902L38.0937 50.5501H29.7769Z" fill="white" class="fill-white"/>
<circle cx="50" cy="50" r="48.5" stroke="#22C1D7" class="stroke-second-color-green"  stroke-width="3"/>
</svg>
