<svg width="100" height="100" viewBox="0 0 100 100" fill="none" xmlns="http://www.w3.org/2000/svg">
<circle cx="50" cy="50" r="48.5" stroke="#22C1D7" class="stroke-second-color-green"  stroke-width="3"/>
<path d="M68.4469 66.3999H28.8255V40.5999H67.5531V44.4759C67.5531 44.7146 67.6473 44.9435 67.8149 45.1123C67.9825 45.2811 68.2098 45.3759 68.4469 45.3759C68.6839 45.3759 68.9112 45.2811 69.0788 45.1123C69.2464 44.9435 69.3406 44.7146 69.3406 44.4759V31.2759C69.3344 31.0414 69.2375 30.8186 69.0705 30.655C68.9036 30.4913 68.6798 30.3998 68.4469 30.3999H27.9318C27.6948 30.3999 27.4675 30.4947 27.2998 30.6635C27.1322 30.8323 27.0381 31.0612 27.0381 31.2999V67.2999C27.0381 67.5386 27.1322 67.7675 27.2998 67.9363C27.4675 68.1051 27.6948 68.1999 27.9318 68.1999H68.4469C68.6839 68.1999 68.9112 68.1051 69.0788 67.9363C69.2464 67.7675 69.3406 67.5386 69.3406 67.2999C69.3406 67.0612 69.2464 66.8323 69.0788 66.6635C68.9112 66.4947 68.6839 66.3999 68.4469 66.3999ZM67.5531 32.1999V38.7999H28.8255V32.1999H67.5531Z" fill="white" class="fill-white"/>
<path d="M31.8044 36.4001H35.3792C35.6162 36.4001 35.8436 36.3053 36.0112 36.1365C36.1788 35.9677 36.2729 35.7388 36.2729 35.5001C36.2729 35.2614 36.1788 35.0325 36.0112 34.8637C35.8436 34.6949 35.6162 34.6001 35.3792 34.6001H31.8044C31.5673 34.6001 31.34 34.6949 31.1724 34.8637C31.0048 35.0325 30.9106 35.2614 30.9106 35.5001C30.9106 35.7388 31.0048 35.9677 31.1724 36.1365C31.34 36.3053 31.5673 36.4001 31.8044 36.4001Z" fill="#22C1D7" class="fill-second-color-green"/>
<path d="M40.1457 36.4001H43.7205C43.9576 36.4001 44.1849 36.3053 44.3525 36.1365C44.5201 35.9677 44.6142 35.7388 44.6142 35.5001C44.6142 35.2614 44.5201 35.0325 44.3525 34.8637C44.1849 34.6949 43.9576 34.6001 43.7205 34.6001H40.1457C39.9086 34.6001 39.6813 34.6949 39.5137 34.8637C39.3461 35.0325 39.252 35.2614 39.252 35.5001C39.252 35.7388 39.3461 35.9677 39.5137 36.1365C39.6813 36.3053 39.9086 36.4001 40.1457 36.4001Z" fill="#22C1D7" class="fill-second-color-green"/>
<path d="M78.2058 55.936V55.858C78.2073 55.828 78.2073 55.7979 78.2058 55.768C78.2058 55.768 78.2058 55.714 78.2058 55.684C78.2058 55.654 78.2058 55.624 78.2058 55.594C78.2058 55.564 78.2058 55.534 78.2058 55.504C78.2058 55.474 78.2058 55.45 78.2058 55.42C78.2073 55.39 78.2073 55.3599 78.2058 55.33V55.252L78.17 55.168L78.1224 55.09L78.0926 55.036C77.8483 54.73 72.0332 47.2 64.5022 47.2C56.2323 47.2 50.1312 54.718 49.875 55.036L49.8274 55.108L49.7797 55.18C49.7662 55.2093 49.7542 55.2393 49.744 55.27V55.342C49.7422 55.3739 49.7422 55.406 49.744 55.438C49.744 55.438 49.744 55.486 49.744 55.516C49.744 55.546 49.744 55.576 49.744 55.606C49.744 55.636 49.744 55.666 49.744 55.696C49.744 55.726 49.744 55.744 49.744 55.774C49.7422 55.8059 49.7422 55.838 49.744 55.87V55.942C49.7542 55.9726 49.7662 56.0026 49.7797 56.032L49.8274 56.104L49.875 56.176C50.1312 56.482 56.2323 64 64.5022 64C72.0332 64 77.8483 56.47 78.0926 56.146L78.1224 56.092L78.17 56.014L78.2058 55.936ZM64.5022 62.2C58.3236 62.2 53.3009 57.286 51.7578 55.6C53.3009 53.914 58.3117 49 64.5022 49C70.0492 49 74.7739 53.932 76.2158 55.6C74.7799 57.268 70.0492 62.2 64.5022 62.2Z" fill="white" class="fill-white"/>
<path d="M63.978 50.5C62.9763 50.5 61.9972 50.7991 61.1643 51.3595C60.3315 51.9199 59.6824 52.7164 59.2991 53.6483C58.9158 54.5802 58.8155 55.6057 59.0109 56.595C59.2063 57.5843 59.6886 58.493 60.3969 59.2062C61.1052 59.9195 62.0076 60.4052 62.9899 60.602C63.9723 60.7988 64.9906 60.6978 65.916 60.3118C66.8414 59.9258 67.6324 59.2721 68.1888 58.4334C68.7453 57.5947 69.0423 56.6087 69.0423 55.6C69.0408 54.2479 68.5067 52.9516 67.5573 51.9955C66.6079 51.0394 65.3206 50.5016 63.978 50.5ZM63.978 58.9C63.3298 58.9 62.6963 58.7065 62.1574 58.3438C61.6185 57.9812 61.1985 57.4659 60.9504 56.8629C60.7024 56.2599 60.6375 55.5963 60.764 54.9562C60.8904 54.3161 61.2025 53.7281 61.6608 53.2665C62.1191 52.805 62.703 52.4907 63.3387 52.3634C63.9743 52.2361 64.6332 52.3014 65.232 52.5512C65.8308 52.801 66.3426 53.2239 66.7026 53.7666C67.0627 54.3093 67.2549 54.9473 67.2549 55.6C67.2533 56.4747 66.9076 57.3132 66.2934 57.9317C65.6792 58.5502 64.8466 58.8984 63.978 58.9Z" fill="#22C1D7" class="fill-second-color-green"/>
</svg>
