<svg width="101" height="100" viewBox="0 0 101 100" fill="none" xmlns="http://www.w3.org/2000/svg">
<circle cx="50.6979" cy="49.9127" r="48.4127" stroke="#22C1D7" class="stroke-second-color-green"  stroke-width="3"/>
<path d="M70.8186 40.9906C70.4659 35.8388 68.1202 31.0243 64.2754 27.561C60.4306 24.0977 55.3868 22.2557 50.2061 22.4231C45.0253 22.5904 40.1119 24.7539 36.5004 28.4581C32.8889 32.1622 30.8612 37.118 30.8442 42.2817C30.8445 43.0693 30.891 43.8561 30.9836 44.6382L26.9153 52.8598C26.7545 53.1853 26.6784 53.5458 26.6939 53.9083C26.7094 54.2707 26.8161 54.6235 27.0041 54.9342C27.1921 55.2448 27.4555 55.5035 27.77 55.6863C28.0846 55.8691 28.4402 55.9703 28.8042 55.9806C29.9143 56.0153 30.6814 56.0385 31.2277 56.0385V58.2155C31.2277 64.9954 32.9074 68.921 41.4509 68.921L45.1531 69.0425V73.6513C45.1531 73.8816 45.245 74.1025 45.4085 74.2654C45.572 74.4283 45.7937 74.5198 46.0249 74.5198C46.2561 74.5198 46.4779 74.4283 46.6414 74.2654C46.8049 74.1025 46.8967 73.8816 46.8967 73.6513V68.2088C46.8968 67.9834 46.809 67.7668 46.6517 67.6047C46.4945 67.4426 46.2801 67.3478 46.054 67.3403L41.48 67.1898C34.8776 67.1898 32.9713 65.1807 32.9713 58.2213V55.1468C32.9719 55.0256 32.9469 54.9057 32.8981 54.7946C32.8493 54.6836 32.7777 54.584 32.6879 54.5022C32.5981 54.4204 32.4922 54.3582 32.3768 54.3197C32.2615 54.2811 32.1393 54.267 32.0182 54.2784H31.9019C31.7276 54.2784 31.0999 54.2784 28.8507 54.2262C28.7777 54.2253 28.7062 54.2056 28.643 54.1691C28.5799 54.1326 28.5273 54.0805 28.4903 54.0178C28.4547 53.9551 28.4359 53.8843 28.4359 53.8123C28.4359 53.7402 28.4547 53.6694 28.4903 53.6067L32.6691 45.1477C32.7451 44.9934 32.7734 44.8201 32.7505 44.6498C32.6458 43.855 32.5934 43.0543 32.5936 42.2528C32.5866 39.2102 33.3455 36.2145 34.801 33.5396C36.2564 30.8647 38.3618 28.596 40.9247 26.9411C43.4875 25.2862 46.426 24.2978 49.4714 24.0665C52.5167 23.8351 55.5716 24.3681 58.3568 25.6167C61.1419 26.8653 63.5683 28.7897 65.4141 31.2138C67.2599 33.6379 68.4661 36.4843 68.9223 39.4927C69.3786 42.5012 69.0704 45.5756 68.0259 48.4347C66.9814 51.2938 65.234 53.8464 62.9435 55.859C62.8501 55.9407 62.7754 56.0413 62.7242 56.1542C62.6731 56.267 62.6468 56.3894 62.6471 56.5132V73.5471C62.6455 73.6615 62.667 73.7752 62.7102 73.8812C62.7535 73.9873 62.8177 74.0837 62.8989 74.1646C62.9802 74.2456 63.0769 74.3095 63.1834 74.3526C63.2899 74.3957 63.4039 74.4171 63.5189 74.4155C63.7501 74.4155 63.9718 74.324 64.1353 74.1612C64.2988 73.9983 64.3906 73.7774 64.3906 73.5471V56.8954C66.5944 54.897 68.3169 52.4289 69.4299 49.6751C70.5429 46.9212 71.0176 43.9526 70.8186 40.9906Z" fill="white" class="fill-white"/>
<path d="M64.443 39.6938L60.9558 36.7988C60.7992 36.6688 60.6017 36.5977 60.3979 36.5977C60.194 36.5977 59.9966 36.6688 59.8399 36.7988L56.3528 39.6938C56.2582 39.7645 56.1791 39.8537 56.1203 39.9559C56.0614 40.058 56.0241 40.1711 56.0104 40.2881C55.9968 40.4051 56.0072 40.5236 56.0411 40.6365C56.0749 40.7494 56.1314 40.8542 56.2072 40.9447C56.283 41.0351 56.3764 41.1092 56.4818 41.1625C56.5873 41.2158 56.7025 41.2472 56.8205 41.2548C56.9385 41.2623 57.0568 41.2459 57.1682 41.2065C57.2797 41.167 57.3819 41.1054 57.4686 41.0254L59.5261 39.3232C59.5261 39.3695 59.5261 39.4158 59.5261 39.4622C59.5031 41.6397 58.6138 43.7191 57.0535 45.2442C55.4932 46.7693 53.3892 47.6155 51.2034 47.5969C49.0019 47.6065 46.8858 46.7491 45.3159 45.2115C45.2385 45.1175 45.1421 45.0407 45.033 44.9861C44.924 44.9316 44.8046 44.9004 44.6827 44.8947C44.5607 44.889 44.439 44.9089 44.3252 44.953C44.2115 44.9972 44.1083 45.0647 44.0224 45.1511C43.9365 45.2374 43.8698 45.3408 43.8266 45.4546C43.7833 45.5683 43.7645 45.6898 43.7714 45.8112C43.7783 45.9326 43.8107 46.0512 43.8665 46.1593C43.9223 46.2675 44.0003 46.3627 44.0954 46.439C45.502 47.8178 47.2833 48.7558 49.2193 49.1368C51.1552 49.5179 53.1608 49.3254 54.9881 48.5831C56.8154 47.8407 58.3842 46.5812 59.5006 44.9602C60.617 43.3391 61.2321 41.4277 61.2697 39.4622C61.2697 39.4101 61.2697 39.3637 61.2697 39.3116L63.3329 41.0486C63.4197 41.1286 63.5219 41.1902 63.6333 41.2296C63.7447 41.2691 63.863 41.2855 63.981 41.2779C64.099 41.2704 64.2142 41.239 64.3197 41.1857C64.4251 41.1324 64.5186 41.0582 64.5944 40.9678C64.6701 40.8774 64.7266 40.7725 64.7605 40.6597C64.7943 40.5468 64.8047 40.4282 64.7911 40.3112C64.7775 40.1942 64.7401 40.0812 64.6813 39.979C64.6224 39.8769 64.5433 39.7877 64.4488 39.7169L64.443 39.6938Z" fill="#22C1D7" class="fill-second-color-green"/>
<path d="M45.9553 39.2247C45.8072 39.0483 45.5949 38.9377 45.365 38.9171C45.1351 38.8965 44.9064 38.9675 44.729 39.1147L42.7355 40.7706C42.6953 40.444 42.6739 40.1153 42.6716 39.7863C42.6592 37.5724 43.5294 35.4442 45.0909 33.869C46.6525 32.2938 48.7778 31.4005 51.0001 31.3852C52.0938 31.3833 53.1769 31.599 54.1859 32.0196C55.1948 32.4401 56.1094 33.0571 56.8759 33.8343C57.0405 33.9886 57.2587 34.0732 57.4846 34.0703C57.7105 34.0674 57.9265 33.9773 58.087 33.8189C58.2475 33.6605 58.34 33.4462 58.345 33.2212C58.35 32.9961 58.2672 32.778 58.1139 32.6126C57.1858 31.6718 56.0785 30.925 54.857 30.416C53.6354 29.907 52.3242 29.6459 51.0001 29.6482C48.3159 29.6651 45.748 30.7419 43.8597 32.6425C41.9715 34.5431 40.9172 37.1122 40.928 39.7863C40.9301 40.15 40.9514 40.5133 40.9919 40.8748L38.8706 39.1378C38.6919 39.0041 38.4685 38.9438 38.2465 38.9695C38.0245 38.9951 37.8209 39.1047 37.6776 39.2756C37.5344 39.4465 37.4626 39.6657 37.4769 39.8879C37.4912 40.11 37.5907 40.3182 37.7547 40.4695L41.2418 43.3644C41.3985 43.4944 41.5959 43.5656 41.7998 43.5656C42.0036 43.5656 42.2011 43.4944 42.3577 43.3644L45.8449 40.4695C45.9359 40.3962 46.0112 40.3054 46.0663 40.2024C46.1214 40.0995 46.1551 39.9866 46.1654 39.8704C46.1757 39.7543 46.1624 39.6372 46.1263 39.5263C46.0902 39.4153 46.0321 39.3127 45.9553 39.2247Z" fill="#22C1D7" class="fill-second-color-green"/>
</svg>
