<svg width="100" height="100" viewBox="0 0 100 100" fill="none" xmlns="http://www.w3.org/2000/svg">
<circle cx="50" cy="50" r="48.5" stroke="#22C1D7" class="stroke-second-color-green"  stroke-width="3"/>
<path d="M72.1934 66.275H69.4675V28.76C69.4675 28.5173 69.3718 28.2846 69.2014 28.113C69.031 27.9414 68.7999 27.845 68.5589 27.845H60.0786C59.8376 27.845 59.6065 27.9414 59.4361 28.113C59.2657 28.2846 59.17 28.5173 59.17 28.76V66.275H54.324V42.79C54.324 42.5473 54.2283 42.3146 54.0579 42.143C53.8875 41.9714 53.6564 41.875 53.4154 41.875H44.9351C44.6941 41.875 44.463 41.9714 44.2926 42.143C44.1222 42.3146 44.0265 42.5473 44.0265 42.79V66.275H39.1805V56.21C39.1805 55.9673 39.0848 55.7346 38.9144 55.563C38.744 55.3914 38.5129 55.295 38.2719 55.295H29.7916C29.5506 55.295 29.3195 55.3914 29.1491 55.563C28.9787 55.7346 28.883 55.9673 28.883 56.21V66.275H26.1571C25.9162 66.275 25.6851 66.3714 25.5147 66.543C25.3443 66.7146 25.2485 66.9473 25.2485 67.19C25.2485 67.4326 25.3443 67.6654 25.5147 67.837C25.6851 68.0086 25.9162 68.105 26.1571 68.105H72.1934C72.4343 68.105 72.6655 68.0086 72.8358 67.837C73.0062 67.6654 73.102 67.4326 73.102 67.19C73.102 66.9473 73.0062 66.7146 72.8358 66.543C72.6655 66.3714 72.4343 66.275 72.1934 66.275ZM60.9872 29.675H67.6503V66.275H60.9872V29.675ZM45.8437 43.705H52.5068V66.275H45.8437V43.705ZM30.7002 57.125H37.3633V66.275H30.7002V57.125Z" fill="white" class="fill-white"/>
<path d="M26.7628 49.1949C27.0037 49.1947 27.2346 49.0981 27.4049 48.9265L52.5067 23.6481V27.5399C52.5067 27.7826 52.6025 28.0153 52.7729 28.1869C52.9433 28.3585 53.1744 28.4549 53.4153 28.4549C53.6563 28.4549 53.8874 28.3585 54.0578 28.1869C54.2282 28.0153 54.3239 27.7826 54.3239 27.5399V21.4399C54.323 21.3248 54.3004 21.211 54.2573 21.1044C54.2116 20.992 54.1442 20.8899 54.0589 20.804C53.9736 20.7181 53.8722 20.6502 53.7606 20.6042C53.6518 20.5551 53.5345 20.5281 53.4153 20.5249H47.3579C47.117 20.5249 46.8859 20.6213 46.7155 20.7929C46.5451 20.9645 46.4493 21.1972 46.4493 21.4399C46.4493 21.6826 46.5451 21.9153 46.7155 22.0869C46.8859 22.2585 47.117 22.3549 47.3579 22.3549H51.2226L26.1207 47.6333C25.9938 47.7613 25.9074 47.9242 25.8724 48.1016C25.8374 48.279 25.8554 48.4629 25.9241 48.6299C25.9928 48.797 26.1091 48.9399 26.2584 49.0404C26.4077 49.141 26.5832 49.1947 26.7628 49.1949Z" fill="#75D8E6" class="fill-second-color-green"/>
</svg>
