<svg width="100" height="100" viewBox="0 0 100 100" fill="none" xmlns="http://www.w3.org/2000/svg">
<circle cx="49.9127" cy="49.9127" r="48.4127" stroke="#22C1D7" class="stroke-second-color-green"  stroke-width="3"/>
<path d="M56.8186 46.9481V37.2882C57.1248 37.1102 57.364 36.8354 57.4993 36.5065C57.6346 36.1776 57.6583 35.813 57.5668 35.4691C57.4753 35.1253 57.2737 34.8214 56.9933 34.6047C56.7128 34.388 56.3692 34.2705 56.0157 34.2705C55.6622 34.2705 55.3185 34.388 55.0381 34.6047C54.7576 34.8214 54.556 35.1253 54.4645 35.4691C54.373 35.813 54.3968 36.1776 54.532 36.5065C54.6673 36.8354 54.9066 37.1102 55.2127 37.2882V47.7567C55.2127 47.9711 55.2973 48.1768 55.4479 48.3284C55.5985 48.4801 55.8027 48.5653 56.0157 48.5653H57.8892V56.6511H55.4804C55.2674 56.6511 55.0632 56.7363 54.9126 56.888C54.762 57.0396 54.6775 57.2453 54.6775 57.4597V66.311C54.3713 66.489 54.132 66.7638 53.9968 67.0927C53.8615 67.4216 53.8377 67.7862 53.9292 68.1301C54.0207 68.474 54.2223 68.7778 54.5028 68.9945C54.7833 69.2113 55.1269 69.3287 55.4804 69.3287C55.8339 69.3287 56.1775 69.2113 56.458 68.9945C56.7384 68.7778 56.9401 68.474 57.0316 68.1301C57.123 67.7862 57.0993 67.4216 56.964 67.0927C56.8287 66.7638 56.5895 66.489 56.2833 66.311V58.2683H62.1287C62.3055 58.5766 62.5783 58.8176 62.9049 58.9538C63.2315 59.09 63.5936 59.1139 63.9351 59.0218C64.2766 58.9296 64.5783 58.7266 64.7935 58.4442C65.0087 58.1618 65.1253 57.8157 65.1253 57.4597C65.1253 57.1037 65.0087 56.7577 64.7935 56.4753C64.5783 56.1928 64.2766 55.9898 63.9351 55.8977C63.5936 55.8055 63.2315 55.8294 62.9049 55.9656C62.5783 56.1019 62.3055 56.3428 62.1287 56.6511H59.4951V48.5653H65.8758C66.0525 48.8736 66.3254 49.1145 66.652 49.2508C66.9786 49.387 67.3407 49.4109 67.6821 49.3188C68.0236 49.2266 68.3253 49.0236 68.5405 48.7412C68.7557 48.4587 68.8724 48.1127 68.8724 47.7567C68.8724 47.4007 68.7557 47.0546 68.5405 46.7722C68.3253 46.4898 68.0236 46.2868 67.6821 46.1946C67.3407 46.1025 66.9786 46.1264 66.652 46.2626C66.3254 46.3988 66.0525 46.6398 65.8758 46.9481H56.8186Z" fill="#22C1D7" class="fill-second-color-green"/>
<path d="M73.6802 39.7786H65.2279V28.8896C65.2279 28.6752 65.1433 28.4695 64.9928 28.3179C64.8422 28.1662 64.6379 28.0811 64.425 28.0811H34.7591C34.5461 28.0811 34.3419 28.1662 34.1913 28.3179C34.0407 28.4695 33.9561 28.6752 33.9561 28.8896V39.7786H25.5039C25.3984 39.7786 25.294 39.7995 25.1966 39.8402C25.0992 39.8808 25.0107 39.9403 24.9361 40.0154C24.8615 40.0905 24.8024 40.1797 24.762 40.2778C24.7217 40.3759 24.7009 40.481 24.7009 40.5872V52.3117C24.7009 52.5261 24.7855 52.7318 24.9361 52.8834C25.0867 53.0351 25.2909 53.1203 25.5039 53.1203H28.8387V64.5645C28.8387 64.7789 28.9233 64.9846 29.0739 65.1362C29.2245 65.2879 29.4287 65.373 29.6417 65.373H37.2803V72.5533C37.2803 72.7677 37.3649 72.9734 37.5155 73.125C37.6661 73.2767 37.8703 73.3619 38.0832 73.3619H61.1008C61.3138 73.3619 61.518 73.2767 61.6686 73.125C61.8192 72.9734 61.9038 72.7677 61.9038 72.5533V65.373H69.5424C69.7553 65.373 69.9596 65.2879 70.1101 65.1362C70.2607 64.9846 70.3453 64.7789 70.3453 64.5645V53.1203H73.6802C73.8932 53.1203 74.0974 53.0351 74.248 52.8834C74.3985 52.7318 74.4831 52.5261 74.4831 52.3117V40.5872C74.4831 40.481 74.4624 40.3759 74.422 40.2778C74.3817 40.1797 74.3225 40.0905 74.248 40.0154C74.1734 39.9403 74.0849 39.8808 73.9875 39.8402C73.8901 39.7995 73.7856 39.7786 73.6802 39.7786ZM38.0832 63.7559H30.4446V52.3117C30.4446 52.0972 30.36 51.8916 30.2094 51.7399C30.0589 51.5883 29.8546 51.5031 29.6417 51.5031H26.3068V41.3958H34.7591C34.972 41.3958 35.1763 41.3106 35.3268 41.1589C35.4774 41.0073 35.562 40.8016 35.562 40.5872V29.6982H48.7891V71.7447H38.8862V64.5645C38.8862 64.35 38.8016 64.1443 38.651 63.9927C38.5004 63.8411 38.2962 63.7559 38.0832 63.7559ZM72.8773 51.5031H69.5424C69.3294 51.5031 69.1252 51.5883 68.9746 51.7399C68.824 51.8916 68.7394 52.0972 68.7394 52.3117V63.7559H61.1008C60.8879 63.7559 60.6836 63.8411 60.5331 63.9927C60.3825 64.1443 60.2979 64.35 60.2979 64.5645V71.7447H50.395V29.6982H63.6221V40.5872C63.6221 40.8016 63.7066 41.0073 63.8572 41.1589C64.0078 41.3106 64.212 41.3958 64.425 41.3958H72.8773V51.5031Z" fill="white" class="fill-white"/>
<path d="M42.9008 66.311C42.5947 66.489 42.3554 66.7638 42.2201 67.0927C42.0848 67.4216 42.0611 67.7862 42.1526 68.1301C42.2441 68.474 42.4457 68.7778 42.7262 68.9945C43.0066 69.2113 43.3503 69.3287 43.7038 69.3287C44.0573 69.3287 44.4009 69.2113 44.6814 68.9945C44.9618 68.7778 45.1634 68.474 45.2549 68.1301C45.3464 67.7862 45.3227 67.4216 45.1874 67.0927C45.0521 66.7638 44.8128 66.489 44.5067 66.311V57.4597C44.5067 57.2453 44.4221 57.0396 44.2715 56.888C44.1209 56.7363 43.9167 56.6511 43.7038 56.6511H41.2949V48.5653H43.1685C43.3814 48.5653 43.5857 48.4801 43.7362 48.3284C43.8868 48.1768 43.9714 47.9711 43.9714 47.7567V37.2882C44.2776 37.1102 44.5168 36.8354 44.6521 36.5065C44.7874 36.1776 44.8111 35.813 44.7196 35.4691C44.6281 35.1253 44.4265 34.8214 44.1461 34.6047C43.8656 34.388 43.522 34.2705 43.1685 34.2705C42.815 34.2705 42.4713 34.388 42.1909 34.6047C41.9104 34.8214 41.7088 35.1253 41.6173 35.4691C41.5258 35.813 41.5495 36.1776 41.6848 36.5065C41.8201 36.8354 42.0594 37.1102 42.3655 37.2882V46.9481H33.3084C33.1316 46.6398 32.8588 46.3988 32.5322 46.2626C32.2056 46.1264 31.8435 46.1025 31.502 46.1946C31.1606 46.2868 30.8588 46.4898 30.6436 46.7722C30.4284 47.0546 30.3118 47.4007 30.3118 47.7567C30.3118 48.1127 30.4284 48.4587 30.6436 48.7412C30.8588 49.0236 31.1606 49.2266 31.502 49.3188C31.8435 49.4109 32.2056 49.387 32.5322 49.2508C32.8588 49.1145 33.1316 48.8736 33.3084 48.5653H39.6891V56.6511H37.0554C36.8787 56.3428 36.6058 56.1019 36.2792 55.9656C35.9526 55.8294 35.5905 55.8055 35.2491 55.8977C34.9076 55.9898 34.6059 56.1928 34.3907 56.4753C34.1755 56.7577 34.0588 57.1037 34.0588 57.4597C34.0588 57.8157 34.1755 58.1618 34.3907 58.4442C34.6059 58.7266 34.9076 58.9296 35.2491 59.0218C35.5905 59.1139 35.9526 59.09 36.2792 58.9538C36.6058 58.8176 36.8787 58.5766 37.0554 58.2683H42.9008V66.311Z" fill="white" class="fill-white"/>
</svg>
