<svg width="100" height="100" viewBox="0 0 100 100" fill="none" xmlns="http://www.w3.org/2000/svg">
<circle cx="50" cy="50" r="48.5" stroke="#22C1D7" class="stroke-second-color-green"  stroke-width="3"/>
<path d="M56.9175 47.0301V37.3533C57.2242 37.175 57.4639 36.8997 57.5994 36.5703C57.7349 36.2408 57.7587 35.8755 57.667 35.531C57.5754 35.1866 57.3734 34.8822 57.0925 34.6651C56.8115 34.448 56.4673 34.3303 56.1132 34.3303C55.7591 34.3303 55.4148 34.448 55.1339 34.6651C54.8529 34.8822 54.651 35.1866 54.5593 35.531C54.4677 35.8755 54.4914 36.2408 54.6269 36.5703C54.7625 36.8997 55.0022 37.175 55.3088 37.3533V47.8401C55.3088 48.0549 55.3936 48.2609 55.5444 48.4128C55.6953 48.5647 55.8999 48.6501 56.1132 48.6501H57.99V56.7501H55.5769C55.3636 56.7501 55.159 56.8354 55.0082 56.9873C54.8573 57.1392 54.7726 57.3453 54.7726 57.5601V66.4269C54.4659 66.6052 54.2262 66.8804 54.0907 67.2099C53.9552 67.5394 53.9314 67.9047 54.0231 68.2491C54.1147 68.5936 54.3167 68.898 54.5976 69.1151C54.8786 69.3322 55.2228 69.4498 55.5769 69.4498C55.9311 69.4498 56.2753 69.3322 56.5563 69.1151C56.8372 68.898 57.0392 68.5936 57.1308 68.2491C57.2225 67.9047 57.1987 67.5394 57.0632 67.2099C56.9277 66.8804 56.688 66.6052 56.3813 66.4269V58.3701H62.2369C62.414 58.6789 62.6873 58.9203 63.0145 59.0568C63.3416 59.1932 63.7044 59.2172 64.0464 59.1249C64.3885 59.0326 64.6908 58.8292 64.9063 58.5463C65.1219 58.2634 65.2388 57.9167 65.2388 57.5601C65.2388 57.2035 65.1219 56.8568 64.9063 56.5739C64.6908 56.291 64.3885 56.0876 64.0464 55.9953C63.7044 55.903 63.3416 55.9269 63.0145 56.0634C62.6873 56.1999 62.414 56.4412 62.2369 56.7501H59.5987V48.6501H65.9905C66.1676 48.9589 66.4409 49.2003 66.7681 49.3368C67.0952 49.4732 67.458 49.4972 67.8 49.4049C68.1421 49.3126 68.4444 49.1092 68.6599 48.8263C68.8755 48.5434 68.9924 48.1967 68.9924 47.8401C68.9924 47.4835 68.8755 47.1368 68.6599 46.8539C68.4444 46.571 68.1421 46.3676 67.8 46.2753C67.458 46.183 67.0952 46.2069 66.7681 46.3434C66.4409 46.4799 66.1676 46.7212 65.9905 47.0301H56.9175Z" fill="#22C1D7" class="fill-second-color-green"/>
<path d="M73.8091 39.8479H65.342V28.9399C65.342 28.7251 65.2573 28.519 65.1064 28.3671C64.9556 28.2152 64.751 28.1299 64.5377 28.1299H34.8199C34.6066 28.1299 34.402 28.2152 34.2511 28.3671C34.1003 28.519 34.0155 28.7251 34.0155 28.9399V39.8479H25.5485C25.4429 39.8479 25.3383 39.8688 25.2407 39.9095C25.1431 39.9502 25.0544 40.0099 24.9797 40.0851C24.905 40.1603 24.8458 40.2496 24.8054 40.3479C24.7649 40.4462 24.7441 40.5515 24.7441 40.6579V52.4029C24.7441 52.6177 24.8289 52.8237 24.9797 52.9756C25.1306 53.1275 25.3352 53.2129 25.5485 53.2129H28.8892V64.6771C28.8892 64.8919 28.9739 65.0979 29.1248 65.2498C29.2756 65.4017 29.4802 65.4871 29.6935 65.4871H37.3455V72.6799C37.3455 72.8947 37.4303 73.1007 37.5811 73.2526C37.7319 73.4045 37.9365 73.4899 38.1499 73.4899H61.2077C61.421 73.4899 61.6256 73.4045 61.7764 73.2526C61.9273 73.1007 62.012 72.8947 62.012 72.6799V65.4871H69.664C69.8773 65.4871 70.0819 65.4017 70.2328 65.2498C70.3836 65.0979 70.4683 64.8919 70.4683 64.6771V53.2129H73.8091C74.0224 53.2129 74.227 53.1275 74.3778 52.9756C74.5287 52.8237 74.6134 52.6177 74.6134 52.4029V40.6579C74.6134 40.5515 74.5926 40.4462 74.5522 40.3479C74.5117 40.2496 74.4525 40.1603 74.3778 40.0851C74.3031 40.0099 74.2145 39.9502 74.1169 39.9095C74.0193 39.8688 73.9147 39.8479 73.8091 39.8479ZM38.1499 63.8671H30.4979V52.4029C30.4979 52.1881 30.4131 51.982 30.2623 51.8301C30.1114 51.6782 29.9069 51.5929 29.6935 51.5929H26.3528V41.4679H34.8199C35.0332 41.4679 35.2378 41.3825 35.3886 41.2306C35.5395 41.0787 35.6242 40.8727 35.6242 40.6579V29.7499H48.8744V71.8699H38.9542V64.6771C38.9542 64.4623 38.8695 64.2562 38.7186 64.1043C38.5678 63.9524 38.3632 63.8671 38.1499 63.8671ZM73.0047 51.5929H69.664C69.4507 51.5929 69.2461 51.6782 69.0952 51.8301C68.9444 51.982 68.8597 52.1881 68.8597 52.4029V63.8671H61.2077C60.9944 63.8671 60.7898 63.9524 60.6389 64.1043C60.4881 64.2562 60.4033 64.4623 60.4033 64.6771V71.8699H50.4831V29.7499H63.7333V40.6579C63.7333 40.8727 63.8181 41.0787 63.9689 41.2306C64.1197 41.3825 64.3243 41.4679 64.5377 41.4679H73.0047V51.5929Z" fill="white" class="fill-white"/>
<path d="M42.9758 66.4269C42.6691 66.6052 42.4294 66.8804 42.2939 67.2099C42.1584 67.5394 42.1346 67.9047 42.2263 68.2491C42.3179 68.5936 42.5199 68.898 42.8008 69.1151C43.0818 69.3322 43.426 69.4498 43.7802 69.4498C44.1343 69.4498 44.4785 69.3322 44.7595 69.1151C45.0404 68.898 45.2424 68.5936 45.334 68.2491C45.4257 67.9047 45.4019 67.5394 45.2664 67.2099C45.1309 66.8804 44.8912 66.6052 44.5845 66.4269V57.5601C44.5845 57.3453 44.4998 57.1392 44.3489 56.9873C44.1981 56.8354 43.9935 56.7501 43.7802 56.7501H41.3671V48.6501H43.2439C43.4573 48.6501 43.6618 48.5647 43.8127 48.4128C43.9635 48.2609 44.0483 48.0549 44.0483 47.8401V37.3533C44.355 37.175 44.5946 36.8997 44.7302 36.5703C44.8657 36.2408 44.8895 35.8755 44.7978 35.531C44.7061 35.1866 44.5042 34.8822 44.2232 34.6651C43.9423 34.448 43.5981 34.3303 43.2439 34.3303C42.8898 34.3303 42.5456 34.448 42.2646 34.6651C41.9837 34.8822 41.7817 35.1866 41.6901 35.531C41.5984 35.8755 41.6222 36.2408 41.7577 36.5703C41.8932 36.8997 42.1329 37.175 42.4396 37.3533V47.0301H33.3666C33.1895 46.7212 32.9162 46.4799 32.589 46.3434C32.2619 46.2069 31.8991 46.183 31.5571 46.2753C31.215 46.3676 30.9128 46.571 30.6972 46.8539C30.4816 47.1368 30.3647 47.4835 30.3647 47.8401C30.3647 48.1967 30.4816 48.5434 30.6972 48.8263C30.9128 49.1092 31.215 49.3126 31.5571 49.4049C31.8991 49.4972 32.2619 49.4732 32.589 49.3368C32.9162 49.2003 33.1895 48.9589 33.3666 48.6501H39.7584V56.7501H37.1202C36.9431 56.4412 36.6698 56.1999 36.3426 56.0634C36.0155 55.9269 35.6527 55.903 35.3107 55.9953C34.9686 56.0876 34.6664 56.291 34.4508 56.5739C34.2352 56.8568 34.1183 57.2035 34.1183 57.5601C34.1183 57.9167 34.2352 58.2634 34.4508 58.5463C34.6664 58.8292 34.9686 59.0326 35.3107 59.1249C35.6527 59.2172 36.0155 59.1932 36.3426 59.0568C36.6698 58.9203 36.9431 58.6789 37.1202 58.3701H42.9758V66.4269Z" fill="white" class="fill-white"/>
</svg>
