<svg width="100" height="100" viewBox="0 0 100 100" fill="none" xmlns="http://www.w3.org/2000/svg">
<circle cx="50" cy="50" r="48.5" stroke="#22C1D7" class="stroke-second-color-green"  stroke-width="3"/>
<path d="M64.2573 35.3945C62.8232 35.3946 61.4044 35.6885 60.0883 36.258C59.7262 32.8219 58.0977 29.6437 55.5202 27.3427C52.9427 25.0418 49.6008 23.7829 46.1458 23.8115C38.4458 23.8115 32.1483 29.955 32.1483 37.5065C32.1482 38.3556 32.2292 39.2028 32.3903 40.0365C31.2968 39.8116 30.1683 39.8204 29.0785 40.0623C27.9887 40.3042 26.9624 40.7738 26.0668 41.4402C25.1713 42.1065 24.4267 42.9547 23.8819 43.9291C23.3371 44.9034 23.0045 45.9819 22.9058 47.0938C22.8071 48.2057 22.9445 49.326 23.3091 50.381C23.6738 51.4361 24.2573 52.4022 25.0215 53.2159C25.7856 54.0296 26.7132 54.6726 27.7433 55.1027C28.7734 55.5328 29.8828 55.7403 30.9988 55.7115H31.2738C31.4926 55.7115 31.7024 55.6246 31.8571 55.4699C32.0118 55.3152 32.0988 55.1053 32.0988 54.8865C32.0988 54.6677 32.0118 54.4579 31.8571 54.3031C31.7024 54.1484 31.4926 54.0615 31.2738 54.0615H30.9988C30.1616 54.0863 29.3279 53.9429 28.5472 53.6396C27.7664 53.3364 27.0545 52.8795 26.4535 52.2961C25.8526 51.7127 25.3748 51.0147 25.0486 50.2433C24.7223 49.4719 24.5542 48.6428 24.5542 47.8053C24.5542 46.9677 24.7223 46.1387 25.0486 45.3673C25.3748 44.5958 25.8526 43.8978 26.4535 43.3144C27.0545 42.731 27.7664 42.2741 28.5472 41.9709C29.3279 41.6676 30.1616 41.5242 30.9988 41.549C31.7645 41.5507 32.524 41.6865 33.2428 41.9505C33.3871 42.0034 33.5433 42.015 33.6938 41.9839C33.8443 41.9528 33.9832 41.8803 34.0947 41.7745C34.2062 41.6687 34.2859 41.5339 34.3249 41.3852C34.3638 41.2365 34.3605 41.0799 34.3153 40.933C33.9745 39.8208 33.8003 38.6643 33.7983 37.501C33.7983 30.857 39.3368 25.456 46.1458 25.456C52.9548 25.456 58.4933 30.8625 58.4933 37.479C58.4933 37.479 58.4933 37.556 58.4933 37.578C58.493 37.724 58.5315 37.8675 58.6048 37.9938C58.6782 38.1201 58.7837 38.2246 58.9106 38.2968C59.0376 38.3689 59.1814 38.4061 59.3274 38.4045C59.4735 38.4028 59.6164 38.3625 59.7418 38.2875C61.1098 37.4747 62.6715 37.0454 64.2628 37.0445C65.3917 37.0039 66.5173 37.1886 67.5741 37.5879C68.6308 37.9872 69.5973 38.593 70.4173 39.3701C71.2372 40.1471 71.8941 41.0797 72.3496 42.1134C72.8051 43.1471 73.0501 44.2613 73.0702 45.3907C73.0903 46.5202 72.8851 47.6423 72.4667 48.6916C72.0483 49.7409 71.4249 50.6963 70.6332 51.502C69.8414 52.3077 68.897 52.9475 67.8551 53.3841C66.8133 53.8208 65.6949 54.0454 64.5653 54.045H64.4333H61.2048C60.986 54.045 60.7761 54.1319 60.6214 54.2866C60.4667 54.4414 60.3798 54.6512 60.3798 54.87C60.3798 55.0888 60.4667 55.2987 60.6214 55.4534C60.7761 55.6081 60.986 55.695 61.2048 55.695H64.5873C64.6512 55.7027 64.7158 55.7027 64.7798 55.695C67.4703 55.6257 70.0231 54.4904 71.8767 52.5389C73.7302 50.5874 74.7325 47.9796 74.6633 45.289C74.594 42.5985 73.4587 40.0456 71.5072 38.1921C69.5557 36.3386 66.9478 35.3362 64.2573 35.4055V35.3945Z" fill="white" class="fill-white"/>
<path d="M62.2221 64.7534L57.0301 69.9454V45.5364C57.0301 45.3176 56.9432 45.1078 56.7885 44.9531C56.6337 44.7983 56.4239 44.7114 56.2051 44.7114C55.9863 44.7114 55.7765 44.7983 55.6217 44.9531C55.467 45.1078 55.3801 45.3176 55.3801 45.5364V69.9454L50.1881 64.7534C50.1126 64.6724 50.0215 64.6074 49.9203 64.5623C49.8191 64.5172 49.7098 64.4929 49.5991 64.491C49.4883 64.489 49.3783 64.5094 49.2755 64.5509C49.1728 64.5924 49.0795 64.6541 49.0012 64.7325C48.9228 64.8108 48.8611 64.9041 48.8196 65.0069C48.7781 65.1096 48.7577 65.2196 48.7596 65.3304C48.7616 65.4412 48.7858 65.5504 48.8309 65.6516C48.876 65.7528 48.941 65.8439 49.0221 65.9194L55.6221 72.5194C55.7768 72.6739 55.9865 72.7607 56.2051 72.7607C56.4237 72.7607 56.6334 72.6739 56.7881 72.5194L63.3881 65.9194C63.5338 65.763 63.6132 65.5562 63.6094 65.3425C63.6056 65.1287 63.519 64.9248 63.3679 64.7736C63.2167 64.6225 63.0128 64.5359 62.7991 64.5321C62.5853 64.5284 62.3785 64.6077 62.2221 64.7534Z" fill="#22C1D7" class="fill-second-color-green"/>
<path d="M49.0882 51.5534L42.4882 44.9534C42.3335 44.7989 42.1238 44.7122 41.9052 44.7122C41.6865 44.7122 41.4768 44.7989 41.3222 44.9534L34.7222 51.5534C34.5764 51.7098 34.4971 51.9167 34.5009 52.1304C34.5046 52.3441 34.5912 52.5481 34.7424 52.6992C34.8935 52.8504 35.0974 52.937 35.3112 52.9407C35.5249 52.9445 35.7318 52.8652 35.8882 52.7194L41.0802 47.5274V71.9364C41.0802 72.1552 41.1671 72.3651 41.3218 72.5198C41.4765 72.6745 41.6863 72.7614 41.9052 72.7614C42.124 72.7614 42.3338 72.6745 42.4885 72.5198C42.6432 72.3651 42.7302 72.1552 42.7302 71.9364V47.5274L47.9221 52.7194C48.0785 52.8652 48.2854 52.9445 48.4991 52.9407C48.7129 52.937 48.9168 52.8504 49.0679 52.6992C49.2191 52.5481 49.3057 52.3441 49.3094 52.1304C49.3132 51.9167 49.2339 51.7098 49.0882 51.5534Z" fill="#22C1D7" class="fill-second-color-green"/>
<path d="M53.2297 35.3725C53.3181 35.5557 53.4711 35.6998 53.6593 35.7771C53.8475 35.8544 54.0577 35.8594 54.2494 35.7912C54.441 35.723 54.6007 35.5864 54.6978 35.4076C54.7949 35.2287 54.8224 35.0204 54.7752 34.8225C54.149 33.0696 53.0023 31.5499 51.4886 30.4667C49.9748 29.3835 48.1664 28.7886 46.3052 28.7615C46.0864 28.7615 45.8766 28.8484 45.7219 29.0031C45.5671 29.1578 45.4802 29.3677 45.4802 29.5865C45.4802 29.8053 45.5671 30.0151 45.7219 30.1698C45.8766 30.3246 46.0864 30.4115 46.3052 30.4115C47.8271 30.4357 49.3054 30.9236 50.5426 31.81C51.7799 32.6965 52.7173 33.9393 53.2297 35.3725Z" fill="white" class="fill-white"/>
</svg>
