<svg width="101" height="101" viewBox="0 0 101 101" fill="none" xmlns="http://www.w3.org/2000/svg">
<circle cx="50.6979" cy="50.7992" r="48.4127" stroke="#22C1D7" class="stroke-second-color-green"  stroke-width="3"/>
<path d="M76.1305 24.8445H25.2652C22.2439 24.8445 19.8252 26.8234 19.752 29.3886V66.6377C19.752 69.1867 22.1951 71.2633 25.2652 71.2633H49.0691V80.2213H34.8177C34.4937 80.2213 34.183 80.35 33.954 80.5791C33.7249 80.8082 33.5962 81.1189 33.5962 81.4429C33.5962 81.7669 33.7249 82.0776 33.954 82.3067C34.183 82.5357 34.4937 82.6644 34.8177 82.6644H66.578C66.9019 82.6644 67.2127 82.5357 67.4417 82.3067C67.6708 82.0776 67.7995 81.7669 67.7995 81.4429C67.7995 81.1189 67.6708 80.8082 67.4417 80.5791C67.2127 80.35 66.9019 80.2213 66.578 80.2213H51.5122V71.2633H76.1305C79.2006 71.2633 81.6437 69.1867 81.6437 66.6377V29.4701C81.6437 26.9211 79.2006 24.8445 76.1305 24.8445ZM79.2006 66.6377C79.2006 67.8186 77.7918 68.8202 76.1305 68.8202H25.2652C23.6365 68.8202 22.195 67.8186 22.195 66.6377V29.4212C22.195 28.2485 23.6039 27.2876 25.2652 27.2876H76.1305C77.7592 27.2876 79.2006 28.2892 79.2006 29.4701V66.6377Z" fill="white" class="fill-white"/>
<path d="M54.9893 40.83C54.7027 40.6871 54.3713 40.6625 54.0667 40.7615C53.762 40.8605 53.5084 41.0752 53.3606 41.3594L46.7805 54.1612C46.7073 54.304 46.6628 54.4598 46.6498 54.6197C46.6368 54.7796 46.6553 54.9406 46.7045 55.0933C46.7536 55.2461 46.8324 55.3877 46.9363 55.51C47.0401 55.6323 47.1671 55.733 47.3099 55.8062C47.4526 55.8795 47.6084 55.9239 47.7684 55.9369C47.9283 55.95 48.0892 55.9314 48.242 55.8822C48.3947 55.8331 48.5363 55.7543 48.6586 55.6505C48.781 55.5466 48.8816 55.4196 48.9549 55.2769L55.5187 42.4506C55.6591 42.1648 55.6823 41.8354 55.5834 41.5327C55.4846 41.23 55.2714 40.9779 54.9893 40.83Z" fill="#22C1D7" class="fill-second-color-green"/>
<path d="M62.7991 40.3821C62.5675 40.1663 62.2612 40.0488 61.9448 40.0544C61.6283 40.06 61.3264 40.1882 61.1026 40.412C60.8788 40.6358 60.7506 40.9377 60.745 41.2542C60.7394 41.5707 60.8569 41.8769 61.0726 42.1085L67.1641 48.1918L61.0726 54.2751C60.9526 54.387 60.8564 54.5218 60.7896 54.6717C60.7228 54.8215 60.6869 54.9833 60.684 55.1473C60.6811 55.3113 60.7113 55.4742 60.7727 55.6263C60.8342 55.7784 60.9256 55.9166 61.0416 56.0326C61.1576 56.1486 61.2958 56.24 61.4479 56.3015C61.6 56.3629 61.7629 56.3931 61.9269 56.3902C62.091 56.3873 62.2527 56.3514 62.4026 56.2846C62.5524 56.2179 62.6873 56.1216 62.7991 56.0016L69.7538 49.055C69.9825 48.826 70.111 48.5155 70.111 48.1918C70.111 47.8681 69.9825 47.5576 69.7538 47.3286L62.7991 40.3821Z" fill="#22C1D7" class="fill-second-color-green"/>
<path d="M41.2515 40.3819C41.0225 40.1532 40.712 40.0247 40.3883 40.0247C40.0646 40.0247 39.7541 40.1532 39.5251 40.3819L32.5704 47.3366C32.3416 47.5656 32.2131 47.8761 32.2131 48.1998C32.2131 48.5235 32.3416 48.834 32.5704 49.063L39.5251 56.0177C39.7566 56.2335 40.0629 56.351 40.3794 56.3454C40.6958 56.3398 40.9978 56.2116 41.2216 55.9878C41.4454 55.764 41.5736 55.462 41.5792 55.1456C41.5848 54.8291 41.4673 54.5228 41.2515 54.2913L35.1601 48.208L41.2515 42.1084C41.4803 41.8793 41.6088 41.5688 41.6088 41.2451C41.6088 40.9214 41.4803 40.6109 41.2515 40.3819Z" fill="#22C1D7" class="fill-second-color-green"/>
</svg>
