<svg width="101" height="101" viewBox="0 0 101 101" fill="none" xmlns="http://www.w3.org/2000/svg">
<circle cx="50.6981" cy="50.7992" r="48.4127" stroke="#22C1D7" class="stroke-second-color-green"  stroke-width="3"/>
<path d="M72.8526 67.0458H70.1316V29.5963C70.1316 29.354 70.036 29.1217 69.8659 28.9504C69.6958 28.7791 69.4651 28.6829 69.2245 28.6829H60.759C60.5184 28.6829 60.2877 28.7791 60.1176 28.9504C59.9475 29.1217 59.852 29.354 59.852 29.5963V67.0458H55.0145V43.6018C55.0145 43.3595 54.9189 43.1272 54.7488 42.9559C54.5787 42.7846 54.348 42.6884 54.1075 42.6884H45.6419C45.4014 42.6884 45.1707 42.7846 45.0006 42.9559C44.8305 43.1272 44.7349 43.3595 44.7349 43.6018V67.0458H39.8974V56.9984C39.8974 56.7561 39.8019 56.5238 39.6318 56.3525C39.4617 56.1812 39.231 56.0849 38.9904 56.0849H30.5249C30.2843 56.0849 30.0536 56.1812 29.8835 56.3525C29.7134 56.5238 29.6178 56.7561 29.6178 56.9984V67.0458H26.8968C26.6562 67.0458 26.4255 67.142 26.2554 67.3133C26.0853 67.4846 25.9897 67.7169 25.9897 67.9592C25.9897 68.2014 26.0853 68.4338 26.2554 68.6051C26.4255 68.7764 26.6562 68.8726 26.8968 68.8726H72.8526C73.0932 68.8726 73.3239 68.7764 73.494 68.6051C73.6641 68.4338 73.7597 68.2014 73.7597 67.9592C73.7597 67.7169 73.6641 67.4846 73.494 67.3133C73.3239 67.142 73.0932 67.0458 72.8526 67.0458ZM61.666 30.5097H68.3175V67.0458H61.666V30.5097ZM46.5489 44.5152H53.2005V67.0458H46.5489V44.5152ZM31.4319 57.9118H38.0834V67.0458H31.4319V57.9118Z" fill="white" class="fill-white"/>
<path d="M27.5014 49.9954C27.7419 49.9952 27.9725 49.8989 28.1424 49.7275L53.2004 24.4932V28.3782C53.2004 28.6205 53.296 28.8528 53.4661 29.0241C53.6362 29.1954 53.8669 29.2916 54.1075 29.2916C54.348 29.2916 54.5787 29.1954 54.7488 29.0241C54.9189 28.8528 55.0145 28.6205 55.0145 28.3782V22.2889C55.0136 22.174 54.991 22.0604 54.948 21.954C54.9024 21.8418 54.835 21.7398 54.7499 21.6541C54.6648 21.5684 54.5636 21.5006 54.4521 21.4546C54.3436 21.4056 54.2264 21.3787 54.1075 21.3755H48.0606C47.8201 21.3755 47.5894 21.4717 47.4193 21.643C47.2492 21.8143 47.1536 22.0466 47.1536 22.2889C47.1536 22.5311 47.2492 22.7635 47.4193 22.9348C47.5894 23.1061 47.8201 23.2023 48.0606 23.2023H51.9185L26.8605 48.4366C26.7338 48.5643 26.6475 48.727 26.6126 48.9041C26.5777 49.0811 26.5956 49.2647 26.6642 49.4315C26.7328 49.5983 26.8489 49.7409 26.9979 49.8413C27.147 49.9416 27.3222 49.9953 27.5014 49.9954Z" fill="#22C1D7" class="fill-second-color-green"/>
</svg>
