<svg width="100" height="100" viewBox="0 0 100 100" fill="none" xmlns="http://www.w3.org/2000/svg">
<circle cx="50" cy="50" r="48.5" stroke="#22C1D7" stroke-width="3"/>
<path d="M77.9803 39.8027V31.0408C77.9784 29.9763 77.5668 28.956 76.8356 28.2033C76.1044 27.4506 75.1132 27.0268 74.0792 27.0249H27.9749C26.9408 27.0268 25.9496 27.4506 25.2184 28.2033C24.4872 28.956 24.0756 29.9763 24.0737 31.0408V39.8027C24.0742 40.3505 24.1841 40.8925 24.3964 41.3949C24.6087 41.8972 24.9189 42.3494 25.3079 42.7233C24.9189 43.0972 24.6087 43.5494 24.3964 44.0518C24.1841 44.5542 24.0742 45.0961 24.0737 45.6439V54.4058C24.0742 54.9537 24.1841 55.4956 24.3964 55.998C24.6087 56.5004 24.9189 56.9526 25.3079 57.3265C24.9189 57.7004 24.6087 58.1525 24.3964 58.6549C24.1841 59.1573 24.0742 59.6992 24.0737 60.2471V69.009C24.0756 70.0735 24.4872 71.0938 25.2184 71.8465C25.9496 72.5992 26.9408 73.023 27.9749 73.0249H74.0792C75.1132 73.023 76.1044 72.5992 76.8356 71.8465C77.5668 71.0938 77.9784 70.0735 77.9803 69.009V60.2471C77.9798 59.6992 77.87 59.1573 77.6577 58.6549C77.4454 58.1525 77.1351 57.7004 76.7461 57.3265C77.1351 56.9526 77.4454 56.5004 77.6577 55.998C77.87 55.4956 77.9798 54.9537 77.9803 54.4058V45.6439C77.9798 45.0961 77.87 44.5542 77.6577 44.0518C77.4454 43.5494 77.1351 43.0972 76.7461 42.7233C77.1351 42.3494 77.4454 41.8972 77.6577 41.3949C77.87 40.8925 77.9798 40.3505 77.9803 39.8027ZM75.8524 60.2471V69.009C75.8524 69.4931 75.6656 69.9574 75.333 70.2998C75.0005 70.6421 74.5495 70.8344 74.0792 70.8344H27.9749C27.5046 70.8344 27.0535 70.6421 26.721 70.2998C26.3884 69.9574 26.2016 69.4931 26.2016 69.009V60.2471C26.2016 59.763 26.3884 59.2987 26.721 58.9564C27.0535 58.614 27.5046 58.4217 27.9749 58.4217H74.0792C74.5495 58.4217 75.0005 58.614 75.333 58.9564C75.6656 59.2987 75.8524 59.763 75.8524 60.2471ZM75.8524 45.6439V54.4058C75.8524 54.89 75.6656 55.3543 75.333 55.6966C75.0005 56.0389 74.5495 56.2312 74.0792 56.2312H27.9749C27.5046 56.2312 27.0535 56.0389 26.721 55.6966C26.3884 55.3543 26.2016 54.89 26.2016 54.4058V45.6439C26.2016 45.1598 26.3884 44.6955 26.721 44.3532C27.0535 44.0109 27.5046 43.8185 27.9749 43.8185H74.0792C74.5495 43.8185 75.0005 44.0109 75.333 44.3532C75.6656 44.6955 75.8524 45.1598 75.8524 45.6439ZM27.9749 41.6281C27.5046 41.6281 27.0535 41.4358 26.721 41.0934C26.3884 40.7511 26.2016 40.2868 26.2016 39.8027V31.0408C26.2016 30.5566 26.3884 30.0924 26.721 29.75C27.0535 29.4077 27.5046 29.2154 27.9749 29.2154H74.0792C74.5495 29.2154 75.0005 29.4077 75.333 29.75C75.6656 30.0924 75.8524 30.5566 75.8524 31.0408V39.8027C75.8524 40.2868 75.6656 40.7511 75.333 41.0934C75.0005 41.4358 74.5495 41.6281 74.0792 41.6281H27.9749Z" fill="white"/>
<path d="M32.9399 37.6122C34.1151 37.6122 35.0678 36.6314 35.0678 35.4217C35.0678 34.2119 34.1151 33.2312 32.9399 33.2312C31.7647 33.2312 30.812 34.2119 30.812 35.4217C30.812 36.6314 31.7647 37.6122 32.9399 37.6122Z" fill="white"/>
<path d="M32.9399 52.2153C34.1151 52.2153 35.0678 51.2346 35.0678 50.0248C35.0678 48.8151 34.1151 47.8344 32.9399 47.8344C31.7647 47.8344 30.812 48.8151 30.812 50.0248C30.812 51.2346 31.7647 52.2153 32.9399 52.2153Z" fill="#75D8E6"/>
<path d="M32.9399 66.8185C34.1151 66.8185 35.0678 65.8377 35.0678 64.628C35.0678 63.4182 34.1151 62.4375 32.9399 62.4375C31.7647 62.4375 30.812 63.4182 30.812 64.628C30.812 65.8377 31.7647 66.8185 32.9399 66.8185Z" fill="white"/>
<path d="M71.2421 34.3265H57.0561C56.774 34.3265 56.5033 34.4419 56.3038 34.6473C56.1043 34.8527 55.9922 35.1313 55.9922 35.4218C55.9922 35.7123 56.1043 35.9908 56.3038 36.1962C56.5033 36.4016 56.774 36.517 57.0561 36.517H71.2421C71.5243 36.517 71.7949 36.4016 71.9944 36.1962C72.1939 35.9908 72.306 35.7123 72.306 35.4218C72.306 35.1313 72.1939 34.8527 71.9944 34.6473C71.7949 34.4419 71.5243 34.3265 71.2421 34.3265Z" fill="white"/>
<path d="M57.0561 51.1202H71.2421C71.5243 51.1202 71.7949 51.0048 71.9944 50.7994C72.1939 50.594 72.306 50.3154 72.306 50.0249C72.306 49.7344 72.1939 49.4559 71.9944 49.2505C71.7949 49.0451 71.5243 48.9297 71.2421 48.9297H57.0561C56.774 48.9297 56.5033 49.0451 56.3038 49.2505C56.1043 49.4559 55.9922 49.7344 55.9922 50.0249C55.9922 50.3154 56.1043 50.594 56.3038 50.7994C56.5033 51.0048 56.774 51.1202 57.0561 51.1202Z" fill="#75D8E6"/>
<path d="M57.0561 65.7233H71.2421C71.5243 65.7233 71.7949 65.6079 71.9944 65.4025C72.1939 65.1971 72.306 64.9185 72.306 64.6281C72.306 64.3376 72.1939 64.059 71.9944 63.8536C71.7949 63.6482 71.5243 63.5328 71.2421 63.5328H57.0561C56.774 63.5328 56.5033 63.6482 56.3038 63.8536C56.1043 64.059 55.9922 64.3376 55.9922 64.6281C55.9922 64.9185 56.1043 65.1971 56.3038 65.4025C56.5033 65.6079 56.774 65.7233 57.0561 65.7233Z" fill="white"/>
</svg>
