<svg width="100" height="100" viewBox="0 0 100 100" fill="none" xmlns="http://www.w3.org/2000/svg">
<circle cx="50" cy="50" r="48.5" stroke="#22C1D7" class="stroke-second-color-green"  stroke-width="3"/>
<path d="M69.8649 48.166C69.7887 48.1108 69.7042 48.0683 69.6147 48.04C69.3735 42.9215 67.1945 38.0905 63.5255 34.54C64.455 30.88 64.5324 27.886 63.7102 25.846C63.5012 25.2724 63.1777 24.7481 62.7596 24.3054C62.3415 23.8626 61.8377 23.5109 61.2793 23.272C59.2893 22.438 56.6379 22.996 53.3967 24.928C53.1973 25.0518 53.0541 25.2497 52.9981 25.4788C52.942 25.708 52.9776 25.9501 53.0971 26.1531C53.2167 26.3561 53.4106 26.5037 53.6371 26.5641C53.8637 26.6244 54.1047 26.5928 54.3083 26.476C56.9597 24.892 59.2118 24.346 60.5941 24.934C60.933 25.0835 61.2376 25.3019 61.4888 25.5755C61.74 25.8491 61.9324 26.172 62.0539 26.524C62.6497 28.024 62.6199 30.352 61.9943 33.196C58.2061 30.1897 53.4626 28.6711 48.646 28.9228C43.8294 29.1744 39.2674 31.1791 35.8084 34.564L35.6655 34.534C28.7541 33.766 23.9638 34.9 22.8675 37.564C22.6587 38.1208 22.5657 38.7149 22.5944 39.3094C22.6231 39.9039 22.7729 40.4862 23.0343 41.02C23.9578 43.216 26.347 45.706 29.755 48.22C29.755 48.484 29.755 48.742 29.755 49.012C29.753 52.5094 30.6631 55.9461 32.3945 58.978C32.34 59.0606 32.2998 59.1519 32.2753 59.248C30.8156 65.566 31.5425 69.778 34.3308 71.098C34.9188 71.3714 35.5601 71.5088 36.2076 71.5C38.3049 71.5 40.8192 70.216 43.4527 68.086C47.2802 69.3639 51.4028 69.4418 55.2752 68.3094C59.1477 67.177 62.5876 64.8876 65.1401 61.744L65.7002 61.804C66.6098 61.876 67.4678 61.912 68.2741 61.912C72.8082 61.912 75.6443 60.796 76.5439 58.642C77.6462 55.906 75.2987 52.192 69.8649 48.166ZM49.6789 30.7C54.0204 30.697 58.2181 32.2665 61.5057 35.122C60.997 36.8664 60.3822 38.5776 59.6647 40.246C59.5714 40.4656 59.5686 40.7135 59.6569 40.9351C59.7452 41.1568 59.9173 41.3341 60.1353 41.428C60.3534 41.5219 60.5996 41.5247 60.8197 41.4358C61.0398 41.3469 61.2159 41.1736 61.3091 40.954C61.9685 39.402 62.5186 37.926 62.9595 36.526C65.8563 39.6415 67.5773 43.6808 67.8233 47.9416C68.0693 52.2025 66.8247 56.4154 64.306 59.848C60.4664 59.3657 56.6776 58.5363 52.9856 57.37C54.3739 55.396 55.6966 53.314 56.9061 51.196C57.3529 50.416 57.7879 49.618 58.2109 48.796C58.266 48.6916 58.3002 48.5773 58.3115 48.4595C58.3228 48.3418 58.311 48.223 58.2767 48.1099C58.2424 47.9968 58.1863 47.8916 58.1116 47.8004C58.0369 47.7091 57.9452 47.6335 57.8415 47.578C57.7378 47.5224 57.6243 47.488 57.5074 47.4766C57.3905 47.4653 57.2725 47.4772 57.1602 47.5117C57.0479 47.5463 56.9435 47.6027 56.8528 47.6779C56.7622 47.7531 56.6871 47.8456 56.632 47.95C56.2209 48.73 55.7919 49.51 55.357 50.272C54.0795 52.5093 52.6874 54.6782 51.1863 56.77C49.7285 56.286 48.237 55.746 46.7118 55.15C41.3921 53.1278 36.3172 50.5051 31.5842 47.332C32.0025 42.7886 34.0891 38.5659 37.4356 35.4899C40.7822 32.4139 45.1479 30.7059 49.6789 30.7ZM24.6549 40.3C24.4912 39.9858 24.3921 39.6417 24.3634 39.2881C24.3347 38.9345 24.3771 38.5787 24.4881 38.242C25.0839 36.832 28.3251 35.698 34.2832 36.19C31.951 39.0329 30.4439 42.4692 29.9278 46.12C27.2586 44.062 25.3937 42.052 24.6549 40.318V40.3ZM46.0564 56.854C47.3969 57.382 48.7375 57.856 50.0662 58.306C47.9884 61.1057 45.648 63.6977 43.0773 66.046C39.7438 64.7323 36.8692 62.4576 34.8132 59.5066C32.7572 56.5557 31.6112 53.0596 31.5186 49.456C36.0956 52.4249 40.9679 54.9044 46.0564 56.854ZM35.0577 69.454C33.3418 68.638 32.8592 65.524 33.6933 61.018C35.7284 63.7564 38.42 65.9302 41.5163 67.336C38.9543 69.304 36.6307 70.216 35.0577 69.466V69.454ZM49.6789 67.3C48.1085 67.3038 46.5444 67.1021 45.0256 66.7C47.5456 64.3186 49.8413 61.7075 51.8834 58.9C55.4936 60.0615 59.192 60.9243 62.9416 61.48C61.2465 63.3155 59.194 64.7795 56.9121 65.7809C54.6302 66.7822 52.168 67.2993 49.6789 67.3ZM74.8578 57.94C74.1845 59.56 71.0625 60.34 66.3496 60.034C68.2726 57.1009 69.3927 53.7086 69.5968 50.2C73.5589 53.326 75.5668 56.242 74.8578 57.94Z" fill="white" class="fill-white"/>
<path d="M34.3008 45.562C36.8207 47.1575 39.4442 48.5807 42.1535 49.822C42.3655 49.9035 42.6002 49.9008 42.8102 49.8145C43.0202 49.7281 43.1898 49.5646 43.2845 49.3571C43.3792 49.1495 43.392 48.9134 43.3203 48.6967C43.2486 48.48 43.0977 48.2989 42.8983 48.19C40.2631 46.9837 37.7113 45.6006 35.26 44.05C35.0603 43.9298 34.8219 43.8927 34.5954 43.9467C34.369 44.0008 34.1724 44.1416 34.0474 44.3393C33.9225 44.537 33.8791 44.776 33.9264 45.0055C33.9737 45.2349 34.108 45.4367 34.3008 45.568V45.562Z" fill="white" class="fill-white"/>
<path d="M49.8217 50.374C50.0256 50.4945 50.2687 50.5287 50.4976 50.4691C50.7265 50.4095 50.9227 50.261 51.0431 50.056C51.4899 49.3 51.9249 48.526 52.3479 47.758C54.1895 44.4018 55.7711 40.9074 57.0786 37.306C57.1384 37.0868 57.1136 36.8529 57.0091 36.6513C56.9047 36.4497 56.7283 36.2955 56.5155 36.2195C56.3027 36.1435 56.0692 36.1514 55.862 36.2417C55.6548 36.3319 55.4892 36.4978 55.3984 36.706C54.1243 40.2205 52.5826 43.6307 50.7869 46.906C50.3758 47.662 49.9468 48.418 49.5118 49.156C49.3954 49.3596 49.3626 49.601 49.4205 49.8286C49.4784 50.0561 49.6224 50.2519 49.8217 50.374Z" fill="#75D8E6" class="fill-second-color-green"/>
</svg>
