<svg width="100" height="100" viewBox="0 0 100 100" fill="none" xmlns="http://www.w3.org/2000/svg">
<circle cx="49.9127" cy="49.9127" r="48.4127" stroke="#22C1D7" class="stroke-second-color-green"  stroke-width="3"/>
<path d="M77.8445 39.7333V30.9866C77.8426 29.924 77.4317 28.9055 76.7018 28.1541C75.9719 27.4027 74.9824 26.9797 73.9501 26.9778H27.9263C26.894 26.9797 25.9046 27.4027 25.1747 28.1541C24.4447 28.9055 24.0339 29.924 24.032 30.9866V39.7333C24.0325 40.2802 24.1421 40.8211 24.354 41.3227C24.566 41.8242 24.8757 42.2755 25.264 42.6488C24.8757 43.022 24.566 43.4734 24.354 43.9749C24.1421 44.4764 24.0325 45.0174 24.032 45.5643V54.3109C24.0325 54.8578 24.1421 55.3988 24.354 55.9003C24.566 56.4018 24.8757 56.8532 25.264 57.2265C24.8757 57.5997 24.566 58.0511 24.354 58.5526C24.1421 59.0541 24.0325 59.5951 24.032 60.142V68.8886C24.0339 69.9512 24.4447 70.9698 25.1747 71.7212C25.9046 72.4726 26.894 72.8956 27.9263 72.8975H73.9501C74.9824 72.8956 75.9719 72.4726 76.7018 71.7212C77.4317 70.9698 77.8426 69.9512 77.8445 68.8886V60.142C77.8439 59.5951 77.7343 59.0541 77.5224 58.5526C77.3105 58.0511 77.0008 57.5997 76.6124 57.2265C77.0008 56.8532 77.3105 56.4018 77.5224 55.9003C77.7343 55.3988 77.8439 54.8578 77.8445 54.3109V45.5643C77.8439 45.0174 77.7343 44.4764 77.5224 43.9749C77.3105 43.4734 77.0008 43.022 76.6124 42.6488C77.0008 42.2755 77.3105 41.8242 77.5224 41.3227C77.7343 40.8211 77.8439 40.2802 77.8445 39.7333ZM75.7203 60.142V68.8886C75.7203 69.3719 75.5338 69.8354 75.2018 70.1771C74.8699 70.5188 74.4196 70.7108 73.9501 70.7108H27.9263C27.4568 70.7108 27.0066 70.5188 26.6746 70.1771C26.3427 69.8354 26.1562 69.3719 26.1562 68.8886V60.142C26.1562 59.6587 26.3427 59.1952 26.6746 58.8535C27.0066 58.5118 27.4568 58.3198 27.9263 58.3198H73.9501C74.4196 58.3198 74.8699 58.5118 75.2018 58.8535C75.5338 59.1952 75.7203 59.6587 75.7203 60.142ZM75.7203 45.5643V54.3109C75.7203 54.7942 75.5338 55.2577 75.2018 55.5994C74.8699 55.9412 74.4196 56.1331 73.9501 56.1331H27.9263C27.4568 56.1331 27.0066 55.9412 26.6746 55.5994C26.3427 55.2577 26.1562 54.7942 26.1562 54.3109V45.5643C26.1562 45.081 26.3427 44.6176 26.6746 44.2758C27.0066 43.9341 27.4568 43.7421 27.9263 43.7421H73.9501C74.4196 43.7421 74.8699 43.9341 75.2018 44.2758C75.5338 44.6176 75.7203 45.081 75.7203 45.5643ZM27.9263 41.5555C27.4568 41.5555 27.0066 41.3635 26.6746 41.0218C26.3427 40.68 26.1562 40.2165 26.1562 39.7333V30.9866C26.1562 30.5034 26.3427 30.0399 26.6746 29.6981C27.0066 29.3564 27.4568 29.1644 27.9263 29.1644H73.9501C74.4196 29.1644 74.8699 29.3564 75.2018 29.6981C75.5338 30.0399 75.7203 30.5034 75.7203 30.9866V39.7333C75.7203 40.2165 75.5338 40.68 75.2018 41.0218C74.8699 41.3635 74.4196 41.5555 73.9501 41.5555H27.9263Z" fill="white" class="fill-white"/>
<path d="M32.8825 37.5466C34.0556 37.5466 35.0067 36.5676 35.0067 35.36C35.0067 34.1523 34.0556 33.1733 32.8825 33.1733C31.7093 33.1733 30.7583 34.1523 30.7583 35.36C30.7583 36.5676 31.7093 37.5466 32.8825 37.5466Z" fill="white" class="fill-white"/>
<path d="M32.8825 52.1243C34.0556 52.1243 35.0067 51.1453 35.0067 49.9376C35.0067 48.73 34.0556 47.751 32.8825 47.751C31.7093 47.751 30.7583 48.73 30.7583 49.9376C30.7583 51.1453 31.7093 52.1243 32.8825 52.1243Z" fill="#22C1D7" class="fill-second-color-green"/>
<path d="M32.8825 66.7019C34.0556 66.7019 35.0067 65.7229 35.0067 64.5153C35.0067 63.3076 34.0556 62.3286 32.8825 62.3286C31.7093 62.3286 30.7583 63.3076 30.7583 64.5153C30.7583 65.7229 31.7093 66.7019 32.8825 66.7019Z" fill="white" class="fill-white"/>
<path d="M71.1178 34.2666H56.9566C56.6749 34.2666 56.4048 34.3818 56.2056 34.5868C56.0064 34.7919 55.8945 35.07 55.8945 35.3599C55.8945 35.6499 56.0064 35.928 56.2056 36.133C56.4048 36.3381 56.6749 36.4533 56.9566 36.4533H71.1178C71.3995 36.4533 71.6696 36.3381 71.8688 36.133C72.068 35.928 72.1799 35.6499 72.1799 35.3599C72.1799 35.07 72.068 34.7919 71.8688 34.5868C71.6696 34.3818 71.3995 34.2666 71.1178 34.2666Z" fill="white" class="fill-white"/>
<path d="M56.9566 51.0309H71.1178C71.3995 51.0309 71.6696 50.9157 71.8688 50.7107C72.068 50.5056 72.1799 50.2275 72.1799 49.9376C72.1799 49.6476 72.068 49.3695 71.8688 49.1645C71.6696 48.9594 71.3995 48.8442 71.1178 48.8442H56.9566C56.6749 48.8442 56.4048 48.9594 56.2056 49.1645C56.0064 49.3695 55.8945 49.6476 55.8945 49.9376C55.8945 50.2275 56.0064 50.5056 56.2056 50.7107C56.4048 50.9157 56.6749 51.0309 56.9566 51.0309Z" fill="#22C1D7" class="fill-second-color-green"/>
<path d="M56.9566 65.6085H71.1178C71.3995 65.6085 71.6696 65.4933 71.8688 65.2883C72.068 65.0833 72.1799 64.8052 72.1799 64.5152C72.1799 64.2252 72.068 63.9471 71.8688 63.7421C71.6696 63.5371 71.3995 63.4219 71.1178 63.4219H56.9566C56.6749 63.4219 56.4048 63.5371 56.2056 63.7421C56.0064 63.9471 55.8945 64.2252 55.8945 64.5152C55.8945 64.8052 56.0064 65.0833 56.2056 65.2883C56.4048 65.4933 56.6749 65.6085 56.9566 65.6085Z" fill="white" class="fill-white"/>
</svg>
