<svg width="100" height="100" viewBox="0 0 100 100" fill="none" xmlns="http://www.w3.org/2000/svg">
<circle cx="50" cy="50" r="48.5" stroke="#22C1D7" stroke-width="3"/>
<path d="M70.221 41.0621C69.8676 35.9013 67.5178 31.0784 63.6663 27.609C59.8148 24.1397 54.7622 22.2945 49.5724 22.4622C44.3826 22.6298 39.4606 24.7971 35.8428 28.5077C32.225 32.2183 30.1937 37.1827 30.1766 42.3555C30.1769 43.1444 30.2236 43.9327 30.3163 44.7161L26.2409 52.9521C26.0798 53.2782 26.0035 53.6393 26.0191 54.0024C26.0346 54.3655 26.1415 54.7189 26.3298 55.0301C26.5182 55.3413 26.782 55.6004 27.0971 55.7835C27.4122 55.9667 27.7684 56.0681 28.1331 56.0783C29.2451 56.1131 30.0136 56.1363 30.5609 56.1363V58.3171C30.5609 65.1089 32.2435 69.0413 40.8019 69.0413L44.5106 69.1631V73.7799C44.5106 74.0107 44.6026 74.232 44.7664 74.3951C44.9302 74.5583 45.1523 74.6499 45.3839 74.6499C45.6155 74.6499 45.8377 74.5583 46.0015 74.3951C46.1652 74.232 46.2572 74.0107 46.2572 73.7799V68.3279C46.2574 68.1021 46.1694 67.8851 46.0118 67.7228C45.8543 67.5604 45.6396 67.4655 45.413 67.4579L40.8311 67.3071C34.2172 67.3071 32.3075 65.2945 32.3075 58.3229V55.2431C32.308 55.1217 32.2831 55.0015 32.2342 54.8903C32.1853 54.7791 32.1135 54.6793 32.0236 54.5974C31.9337 54.5154 31.8275 54.4531 31.712 54.4145C31.5964 54.3759 31.474 54.3618 31.3527 54.3731H31.2362C31.0616 54.3731 30.4328 54.3731 28.1796 54.3209C28.1065 54.32 28.0349 54.3003 27.9717 54.2637C27.9084 54.2271 27.8557 54.1749 27.8187 54.1121C27.7829 54.0493 27.7642 53.9784 27.7642 53.9062C27.7642 53.8341 27.7829 53.7631 27.8187 53.7003L32.0048 45.2265C32.0809 45.072 32.1092 44.8984 32.0863 44.7277C31.9814 43.9316 31.9289 43.1295 31.9291 42.3265C31.9221 39.2786 32.6824 36.2777 34.1403 33.5981C35.5983 30.9185 37.7074 28.6459 40.2748 26.9881C42.8421 25.3303 45.7857 24.3402 48.8364 24.1084C51.887 23.8766 54.9473 24.4106 57.7373 25.6614C60.5273 26.9122 62.958 28.8399 64.807 31.2682C66.656 33.6966 67.8643 36.548 68.3214 39.5617C68.7784 42.5754 68.4697 45.6551 67.4234 48.5192C66.3771 51.3834 64.6266 53.9404 62.3321 55.9565C62.2385 56.0384 62.1637 56.1392 62.1124 56.2522C62.0612 56.3653 62.0349 56.4879 62.0351 56.6119V73.6755C62.0336 73.7902 62.0551 73.904 62.0984 74.0103C62.1417 74.1166 62.206 74.2131 62.2874 74.2942C62.3688 74.3753 62.4657 74.4393 62.5724 74.4825C62.6791 74.5257 62.7933 74.5471 62.9084 74.5455C63.1401 74.5455 63.3622 74.4539 63.526 74.2907C63.6897 74.1276 63.7818 73.9063 63.7818 73.6755V56.9947C65.9894 54.9929 67.7149 52.5205 68.8299 49.7618C69.9448 47.0032 70.4203 44.0294 70.221 41.0621Z" fill="white"/>
<path d="M63.8341 39.7631L60.3408 36.8631C60.1839 36.7329 59.9861 36.6616 59.7819 36.6616C59.5777 36.6616 59.3799 36.7329 59.223 36.8631L55.7297 39.7631C55.635 39.834 55.5558 39.9233 55.4969 40.0257C55.4379 40.128 55.4005 40.2413 55.3868 40.3585C55.3732 40.4757 55.3836 40.5945 55.4175 40.7075C55.4514 40.8206 55.508 40.9256 55.5839 41.0162C55.6598 41.1068 55.7534 41.1811 55.8591 41.2345C55.9647 41.2879 56.0801 41.3193 56.1983 41.3269C56.3165 41.3345 56.435 41.318 56.5467 41.2785C56.6583 41.239 56.7607 41.1773 56.8476 41.0971L58.9086 39.3919C58.9086 39.4383 58.9086 39.4847 58.9086 39.5311C58.8856 41.7125 57.9948 43.7956 56.4317 45.3233C54.8687 46.8511 52.761 47.6987 50.5714 47.6801C48.366 47.6897 46.2462 46.8308 44.6736 45.2905C44.596 45.1963 44.4995 45.1194 44.3902 45.0648C44.281 45.0101 44.1614 44.9789 44.0392 44.9732C43.9171 44.9675 43.7951 44.9874 43.6812 45.0316C43.5673 45.0759 43.4639 45.1434 43.3779 45.23C43.2918 45.3165 43.225 45.4201 43.1816 45.534C43.1383 45.6479 43.1195 45.7696 43.1264 45.8912C43.1333 46.0129 43.1657 46.1317 43.2216 46.24C43.2775 46.3484 43.3557 46.4438 43.4509 46.5201C44.86 47.9014 46.6445 48.841 48.5838 49.2227C50.5231 49.6044 52.5322 49.4116 54.3627 48.668C56.1932 47.9244 57.7648 46.6626 58.8831 45.0388C60.0015 43.4149 60.6176 41.5001 60.6552 39.5311C60.6552 39.4789 60.6552 39.4325 60.6552 39.3803L62.7221 41.1203C62.809 41.2005 62.9114 41.2622 63.023 41.3017C63.1346 41.3412 63.2531 41.3577 63.3713 41.3501C63.4896 41.3425 63.605 41.3111 63.7106 41.2577C63.8162 41.2043 63.9098 41.13 63.9857 41.0394C64.0617 40.9488 64.1183 40.8438 64.1522 40.7307C64.186 40.6177 64.1965 40.4989 64.1828 40.3817C64.1692 40.2645 64.1318 40.1512 64.0728 40.0489C64.0138 39.9465 63.9346 39.8572 63.8399 39.7863L63.8341 39.7631Z" fill="#75D8E6"/>
<path d="M45.3139 39.2932C45.1655 39.1165 44.9528 39.0057 44.7225 38.9851C44.4922 38.9644 44.2631 39.0356 44.0854 39.183L42.0884 40.8418C42.0482 40.5146 42.0268 40.1854 42.0244 39.8558C42.012 37.6381 42.8837 35.5061 44.448 33.9282C46.0123 32.3502 48.1413 31.4553 50.3675 31.44C51.4631 31.4381 52.5481 31.6542 53.5588 32.0755C54.5696 32.4968 55.4857 33.1148 56.2536 33.8934C56.4184 34.0479 56.637 34.1327 56.8633 34.1298C57.0896 34.1269 57.306 34.0366 57.4668 33.8779C57.6276 33.7193 57.7202 33.5046 57.7253 33.2792C57.7303 33.0538 57.6473 32.8352 57.4937 32.6696C56.564 31.7271 55.4548 30.979 54.2311 30.4691C53.0074 29.9592 51.6939 29.6977 50.3675 29.7C47.6786 29.7168 45.1062 30.7956 43.2147 32.6995C41.3231 34.6034 40.2669 37.177 40.2778 39.8558C40.2798 40.2201 40.3012 40.5841 40.3418 40.9462L38.2168 39.2062C38.0378 39.0722 37.814 39.0118 37.5916 39.0375C37.3692 39.0632 37.1652 39.173 37.0217 39.3442C36.8783 39.5154 36.8063 39.735 36.8206 39.9575C36.835 40.1801 36.9346 40.3887 37.0989 40.5402L40.5922 43.4402C40.7491 43.5704 40.9469 43.6417 41.1511 43.6417C41.3553 43.6417 41.5531 43.5704 41.71 43.4402L45.2033 40.5402C45.2945 40.4667 45.3699 40.3758 45.4251 40.2727C45.4802 40.1696 45.514 40.0564 45.5243 39.9401C45.5346 39.8237 45.5213 39.7064 45.4852 39.5953C45.449 39.4841 45.3908 39.3814 45.3139 39.2932Z" fill="white"/>
</svg>
