<svg width="101" height="101" viewBox="0 0 101 101" fill="none" xmlns="http://www.w3.org/2000/svg">
<circle cx="50.6981" cy="50.7975" r="48.4127" stroke="#22C1D7" class="stroke-second-color-green"  stroke-width="3"/>
<path fill-rule="evenodd" clip-rule="evenodd" d="M51.9512 44.2645C51.9512 45.6268 50.8468 46.7312 49.4845 46.7312C48.1222 46.7312 47.0178 45.6268 47.0178 44.2645C47.0178 42.9021 48.1222 41.7978 49.4845 41.7978C50.8468 41.7978 51.9512 42.9021 51.9512 44.2645ZM51.4671 47.816C52.7106 47.1203 53.5512 45.7906 53.5512 44.2645C53.5512 42.0185 51.7305 40.1978 49.4845 40.1978C47.2385 40.1978 45.4178 42.0185 45.4178 44.2645C45.4178 45.8201 46.2913 47.1718 47.5746 47.8557C46.3193 48.2733 45.1601 49.0939 44.2757 50.3168C43.0465 52.0166 42.3836 54.4398 42.6386 57.5467L44.2332 57.4158C44.002 54.5985 44.6147 52.5784 45.5722 51.2544C46.5282 49.9325 47.863 49.2507 49.208 49.1456C51.8489 48.9392 54.7845 50.9814 54.7845 55.5065H56.3845C56.3845 51.336 54.1808 48.6575 51.4671 47.816Z" fill="#22C1D7" class="fill-second-color-green"/>
<path d="M70.8108 50.5334C70.7333 50.4774 70.6474 50.4341 70.5564 50.4053C70.3112 45.2015 68.0959 40.2899 64.3657 36.6802C65.3106 32.9592 65.3894 29.9152 64.5535 27.8412C64.341 27.2581 64.012 26.725 63.587 26.2749C63.1619 25.8248 62.6497 25.4672 62.082 25.2243C60.0588 24.3764 57.3633 24.9437 54.068 26.9079C53.8652 27.0338 53.7196 27.2349 53.6627 27.4679C53.6057 27.7009 53.6419 27.9471 53.7634 28.1534C53.8849 28.3598 54.0821 28.5099 54.3124 28.5713C54.5427 28.6327 54.7878 28.6005 54.9948 28.4817C57.6904 26.8713 59.9801 26.3162 61.3854 26.914C61.73 27.066 62.0396 27.2881 62.295 27.5662C62.5504 27.8444 62.746 28.1727 62.8695 28.5305C63.4752 30.0555 63.4449 32.4224 62.8089 35.3138C58.9576 32.2573 54.135 30.7135 49.238 30.9693C44.3411 31.2251 39.703 33.2632 36.1864 36.7046L36.041 36.6741C29.0143 35.8933 24.1441 37.0462 23.0296 39.7546C22.8173 40.3208 22.7228 40.9248 22.752 41.5292C22.7812 42.1336 22.9334 42.7255 23.1992 43.2683C24.1381 45.5009 26.5671 48.0324 30.032 50.5883C30.032 50.8567 30.032 51.119 30.032 51.3935C30.0299 54.9493 30.9553 58.4433 32.7155 61.5258C32.6601 61.6098 32.6192 61.7026 32.5943 61.8003C31.1102 68.2236 31.8492 72.5059 34.6841 73.8479C35.2819 74.1259 35.9339 74.2655 36.5922 74.2566C38.7245 74.2566 41.2807 72.9512 43.9581 70.7856C47.8495 72.0849 52.0408 72.1641 55.9778 71.0128C59.9148 69.8615 63.4121 67.5339 66.0073 64.3379L66.5767 64.3989C67.5014 64.4721 68.3737 64.5087 69.1935 64.5087C73.8032 64.5087 76.6866 63.3741 77.6012 61.1842C78.7219 58.4025 76.3352 54.6266 70.8108 50.5334ZM50.2881 32.7762C54.702 32.7731 58.9698 34.3688 62.3122 37.2719C61.795 39.0454 61.1699 40.7852 60.4404 42.4814C60.3457 42.7046 60.3428 42.9567 60.4326 43.182C60.5223 43.4074 60.6973 43.5876 60.919 43.6831C61.1407 43.7785 61.391 43.7814 61.6148 43.691C61.8385 43.6006 62.0175 43.4244 62.1123 43.2012C62.7827 41.6233 63.342 40.1227 63.7902 38.6993C66.7353 41.8668 68.485 45.9734 68.7351 50.3053C68.9852 54.6372 67.7199 58.9204 65.1592 62.4103C61.2555 61.9199 57.4036 61.0767 53.65 59.8909C55.0614 57.884 56.4062 55.7673 57.6358 53.614C58.0901 52.821 58.5323 52.0097 58.9624 51.1739C59.0185 51.0678 59.0533 50.9516 59.0648 50.8319C59.0762 50.7122 59.0642 50.5915 59.0293 50.4765C58.9944 50.3615 58.9374 50.2545 58.8615 50.1617C58.7856 50.0689 58.6923 49.9921 58.5869 49.9356C58.4815 49.8792 58.366 49.8441 58.2472 49.8326C58.1284 49.821 58.0084 49.8332 57.8942 49.8683C57.7801 49.9034 57.6739 49.9608 57.5817 50.0373C57.4896 50.1137 57.4133 50.2077 57.3572 50.3138C56.9392 51.1068 56.5031 51.8999 56.0609 52.6746C54.7621 54.9492 53.3468 57.1543 51.8207 59.2809C50.3386 58.7889 48.8222 58.2399 47.2715 57.6339C41.8632 55.5781 36.7036 52.9116 31.8916 49.6855C32.317 45.0664 34.4383 40.7733 37.8407 37.646C41.2431 34.5187 45.6816 32.7822 50.2881 32.7762ZM24.8468 42.5363C24.6804 42.2169 24.5796 41.867 24.5505 41.5075C24.5213 41.148 24.5644 40.7863 24.6772 40.4439C25.283 39.0104 28.5782 37.8575 34.6357 38.3577C32.2646 41.2481 30.7323 44.7417 30.2077 48.4533C27.4939 46.361 25.5979 44.3175 24.8468 42.5546V42.5363ZM46.6052 59.3663C47.9681 59.9031 49.3311 60.385 50.6819 60.8425C48.5695 63.689 46.1901 66.3242 43.5765 68.7116C40.1874 67.376 37.2648 65.0634 35.1745 62.0632C33.0842 59.0631 31.9191 55.5087 31.825 51.845C36.4783 54.8634 41.4319 57.3842 46.6052 59.3663ZM35.4231 72.1765C33.6786 71.3469 33.1879 68.1809 34.036 63.5998C36.105 66.3839 38.8415 68.5939 41.9894 70.0231C39.3847 72.024 37.0223 72.9512 35.4231 72.1887V72.1765ZM50.2881 69.9865C48.6916 69.9904 47.1013 69.7853 45.5573 69.3765C48.1193 66.9555 50.4533 64.3008 52.5294 61.4465C56.1999 62.6273 59.9599 63.5046 63.772 64.0695C62.0486 65.9356 59.9619 67.4241 57.642 68.4421C55.3221 69.4601 52.8187 69.9859 50.2881 69.9865ZM75.887 60.4704C75.2025 62.1175 72.0284 62.9105 67.2369 62.5994C69.1919 59.6174 70.3307 56.1685 70.5382 52.6014C74.5664 55.7795 76.6078 58.7441 75.887 60.4704Z" fill="white" class="fill-white"/>
</svg>
