<svg width="100" height="100" viewBox="0 0 100 100" fill="none" xmlns="http://www.w3.org/2000/svg">
<circle cx="50" cy="50" r="48.5" stroke="#22C1D7" class="stroke-second-color-green" stroke-width="3"/>
<path d="M64.2781 35.508C62.854 35.5081 61.4451 35.802 60.1382 36.3715C59.7786 32.9354 58.1615 29.7572 55.602 27.4562C53.0425 25.1553 49.7239 23.8964 46.293 23.925C38.6468 23.925 32.3933 30.0685 32.3933 37.62C32.3932 38.4692 32.4737 39.3163 32.6336 40.15C31.5478 39.9252 30.4271 39.934 29.345 40.1759C28.2628 40.4178 27.2437 40.8873 26.3543 41.5537C25.465 42.2201 24.7256 43.0682 24.1847 44.0426C23.6437 45.0169 23.3134 46.0954 23.2154 47.2073C23.1174 48.3193 23.2539 49.4395 23.6159 50.4946C23.978 51.5496 24.5574 52.5157 25.3163 53.3294C26.0751 54.1431 26.9962 54.7861 28.0191 55.2162C29.0421 55.6463 30.1437 55.8538 31.2518 55.825H31.5249C31.7422 55.825 31.9506 55.7381 32.1042 55.5834C32.2578 55.4287 32.3441 55.2188 32.3441 55C32.3441 54.7812 32.2578 54.5714 32.1042 54.4167C31.9506 54.262 31.7422 54.175 31.5249 54.175H31.2518C30.4205 54.1999 29.5927 54.0564 28.8174 53.7532C28.0421 53.4499 27.3351 52.9931 26.7384 52.4097C26.1416 51.8263 25.6672 51.1282 25.3432 50.3568C25.0192 49.5854 24.8523 48.7563 24.8523 47.9188C24.8523 47.0812 25.0192 46.2522 25.3432 45.4808C25.6672 44.7094 26.1416 44.0113 26.7384 43.4279C27.3351 42.8445 28.0421 42.3876 28.8174 42.0844C29.5927 41.7812 30.4205 41.6377 31.2518 41.6625C32.0122 41.6642 32.7664 41.8001 33.4802 42.064C33.6235 42.117 33.7786 42.1285 33.928 42.0974C34.0775 42.0663 34.2154 41.9938 34.3261 41.888C34.4368 41.7822 34.516 41.6474 34.5547 41.4987C34.5934 41.35 34.5901 41.1934 34.5452 41.0465C34.2068 39.9343 34.0338 38.7778 34.0318 37.6145C34.0318 30.9705 39.5316 25.5695 46.293 25.5695C53.0545 25.5695 58.5543 30.976 58.5543 37.5925C58.5543 37.5925 58.5543 37.6695 58.5543 37.6915C58.554 37.8376 58.5923 37.981 58.6651 38.1073C58.7379 38.2336 58.8427 38.3382 58.9688 38.4103C59.0949 38.4824 59.2377 38.5196 59.3827 38.518C59.5277 38.5164 59.6696 38.476 59.7941 38.401C61.1526 37.5883 62.7034 37.1589 64.2835 37.158C65.4045 37.1174 66.5224 37.3021 67.5717 37.7014C68.621 38.1007 69.5808 38.7066 70.3951 39.4836C71.2093 40.2606 71.8616 41.1932 72.3139 42.2269C72.7662 43.2607 73.0095 44.3748 73.0294 45.5043C73.0494 46.6337 72.8457 47.7559 72.4301 48.8051C72.0146 49.8544 71.3957 50.8098 70.6094 51.6155C69.8232 52.4212 68.8854 53.061 67.8508 53.4977C66.8162 53.9343 65.7056 54.159 64.5839 54.1585H64.4528H61.2469C61.0296 54.1585 60.8212 54.2455 60.6676 54.4002C60.5139 54.5549 60.4276 54.7647 60.4276 54.9835C60.4276 55.2023 60.5139 55.4122 60.6676 55.5669C60.8212 55.7216 61.0296 55.8085 61.2469 55.8085H64.6057C64.6692 55.8162 64.7334 55.8162 64.7969 55.8085C67.4687 55.7392 70.0037 54.604 71.8442 52.6525C73.6848 50.701 74.6802 48.0931 74.6114 45.4025C74.5426 42.712 73.4152 40.1591 71.4774 38.3056C69.5395 36.4521 66.9498 35.4497 64.2781 35.519V35.508Z" fill="white" class="fill-white"/>
<path d="M62.2572 64.867L57.1015 70.059V45.65C57.1015 45.4311 57.0152 45.2213 56.8615 45.0666C56.7079 44.9119 56.4995 44.825 56.2823 44.825C56.065 44.825 55.8566 44.9119 55.703 45.0666C55.5493 45.2213 55.463 45.4311 55.463 45.65V70.059L50.3073 64.867C50.2323 64.7859 50.1418 64.7209 50.0413 64.6758C49.9408 64.6307 49.8324 64.6065 49.7224 64.6045C49.6124 64.6025 49.5031 64.6229 49.4011 64.6644C49.2991 64.7059 49.2064 64.7677 49.1286 64.846C49.0508 64.9244 48.9895 65.0177 48.9483 65.1204C48.9071 65.2231 48.8869 65.3332 48.8888 65.4439C48.8907 65.5547 48.9148 65.6639 48.9596 65.7651C49.0044 65.8663 49.0689 65.9574 49.1494 66.033L55.7033 72.633C55.8569 72.7874 56.0652 72.8742 56.2823 72.8742C56.4993 72.8742 56.7076 72.7874 56.8612 72.633L63.4151 66.033C63.5598 65.8766 63.6386 65.6697 63.6348 65.456C63.6311 65.2422 63.5451 65.0383 63.395 64.8872C63.2449 64.736 63.0424 64.6494 62.8302 64.6457C62.6179 64.6419 62.4125 64.7212 62.2572 64.867Z" fill="#22C1D7" class="fill-second-color-green"/>
<path d="M49.215 51.667L42.6611 45.067C42.5075 44.9125 42.2993 44.8257 42.0822 44.8257C41.8651 44.8257 41.6569 44.9125 41.5033 45.067L34.9494 51.667C34.8047 51.8233 34.7259 52.0302 34.7296 52.2439C34.7334 52.4577 34.8193 52.6616 34.9694 52.8127C35.1195 52.9639 35.322 53.0505 35.5343 53.0542C35.7465 53.058 35.9519 52.9787 36.1072 52.833L41.263 47.641V72.05C41.263 72.2688 41.3493 72.4786 41.5029 72.6333C41.6565 72.788 41.8649 72.875 42.0822 72.875C42.2995 72.875 42.5079 72.788 42.6615 72.6333C42.8151 72.4786 42.9014 72.2688 42.9014 72.05V47.641L48.0572 52.833C48.2125 52.9787 48.4179 53.058 48.6301 53.0542C48.8424 53.0505 49.0449 52.9639 49.195 52.8127C49.3451 52.6616 49.431 52.4577 49.4348 52.2439C49.4385 52.0302 49.3597 51.8233 49.215 51.667Z" fill="white" class="fill-white"/>
<path d="M53.3277 35.486C53.4155 35.6692 53.5674 35.8133 53.7543 35.8906C53.9412 35.9679 54.1499 35.973 54.3402 35.9047C54.5306 35.8365 54.6891 35.6999 54.7855 35.5211C54.8819 35.3423 54.9093 35.1339 54.8624 34.936C54.2406 33.1832 53.1018 31.6634 51.5987 30.5802C50.0956 29.497 48.2997 28.9021 46.4516 28.875C46.2343 28.875 46.0259 28.9619 45.8723 29.1166C45.7186 29.2714 45.6323 29.4812 45.6323 29.7C45.6323 29.9188 45.7186 30.1286 45.8723 30.2834C46.0259 30.4381 46.2343 30.525 46.4516 30.525C47.9628 30.5492 49.4307 31.0371 50.6594 31.9235C51.888 32.81 52.8189 34.0528 53.3277 35.486Z" fill="white" class="fill-white"/>
</svg>